<mxfile host="app.diagrams.net" modified="2023-05-28T03:48:17.578Z" agent="Mozilla/5.0 (Windows NT 10.0; Win64; x64) AppleWebKit/537.36 (KHTML, like Gecko) Chrome/113.0.0.0 Safari/537.36" etag="E06JmGbDXeR_ThjvxhcJ" version="21.3.4" type="github">
  <diagram name="Page-1" id="8knTemBwskqMgURJLsrm">
    <mxGraphModel dx="1008" dy="1668" grid="1" gridSize="10" guides="1" tooltips="1" connect="1" arrows="1" fold="1" page="1" pageScale="1" pageWidth="827" pageHeight="1169" math="0" shadow="0">
      <root>
        <mxCell id="0" />
        <mxCell id="1" parent="0" />
        <mxCell id="sWhWIhyuhKPl6AwqvS7Z-33" value="" style="rounded=1;whiteSpace=wrap;html=1;fillColor=none;strokeWidth=2;dashed=1;" vertex="1" parent="1">
          <mxGeometry x="50" y="-60" width="890" height="550" as="geometry" />
        </mxCell>
        <mxCell id="sWhWIhyuhKPl6AwqvS7Z-1" value="&lt;font style=&quot;font-size: 14px;&quot;&gt;&lt;b&gt;Web2 User&lt;/b&gt;&lt;/font&gt;" style="shape=umlActor;verticalLabelPosition=bottom;verticalAlign=top;html=1;outlineConnect=0;" vertex="1" parent="1">
          <mxGeometry x="150" y="80" width="30" height="40" as="geometry" />
        </mxCell>
        <mxCell id="sWhWIhyuhKPl6AwqvS7Z-2" value="&lt;b&gt;&lt;font style=&quot;font-size: 14px;&quot;&gt;Web3 User&lt;/font&gt;&lt;/b&gt;" style="shape=umlActor;verticalLabelPosition=bottom;verticalAlign=top;html=1;outlineConnect=0;" vertex="1" parent="1">
          <mxGeometry x="150" y="300" width="30" height="40" as="geometry" />
        </mxCell>
        <mxCell id="sWhWIhyuhKPl6AwqvS7Z-3" value="" style="shape=flexArrow;endArrow=classic;html=1;rounded=0;endWidth=11.830985915492958;endSize=6.470422535211267;width=5.633802816901409;" edge="1" parent="1">
          <mxGeometry width="50" height="50" relative="1" as="geometry">
            <mxPoint x="200" y="100" as="sourcePoint" />
            <mxPoint x="320" y="100" as="targetPoint" />
          </mxGeometry>
        </mxCell>
        <mxCell id="sWhWIhyuhKPl6AwqvS7Z-4" value="" style="shape=image;verticalLabelPosition=bottom;labelBackgroundColor=default;verticalAlign=top;aspect=fixed;imageAspect=0;image=https://upload.wikimedia.org/wikipedia/commons/thumb/e/e8/Binance_Logo.svg/1024px-Binance_Logo.svg.png;" vertex="1" parent="1">
          <mxGeometry x="340" y="75" width="50" height="50" as="geometry" />
        </mxCell>
        <mxCell id="sWhWIhyuhKPl6AwqvS7Z-6" value="" style="shape=image;verticalLabelPosition=bottom;labelBackgroundColor=default;verticalAlign=top;aspect=fixed;imageAspect=0;image=https://seeklogo.com/images/C/coinbase-coin-logo-C86F46D7B8-seeklogo.com.png;" vertex="1" parent="1">
          <mxGeometry x="400" y="75" width="50" height="50" as="geometry" />
        </mxCell>
        <mxCell id="sWhWIhyuhKPl6AwqvS7Z-9" value="" style="shape=image;verticalLabelPosition=bottom;labelBackgroundColor=default;verticalAlign=top;aspect=fixed;imageAspect=0;image=https://altcoinsbox.com/wp-content/uploads/2023/03/okx-logo-black-and-white.png;" vertex="1" parent="1">
          <mxGeometry x="460" y="75" width="50" height="50" as="geometry" />
        </mxCell>
        <mxCell id="sWhWIhyuhKPl6AwqvS7Z-10" value="" style="shape=flexArrow;endArrow=classic;html=1;rounded=0;endWidth=11.830985915492958;endSize=6.470422535211267;width=5.633802816901409;" edge="1" parent="1">
          <mxGeometry width="50" height="50" relative="1" as="geometry">
            <mxPoint x="200" y="330" as="sourcePoint" />
            <mxPoint x="320" y="330" as="targetPoint" />
          </mxGeometry>
        </mxCell>
        <mxCell id="sWhWIhyuhKPl6AwqvS7Z-11" value="" style="shape=image;verticalLabelPosition=bottom;labelBackgroundColor=default;verticalAlign=top;aspect=fixed;imageAspect=0;image=https://upload.wikimedia.org/wikipedia/commons/thumb/3/36/MetaMask_Fox.svg/1200px-MetaMask_Fox.svg.png;" vertex="1" parent="1">
          <mxGeometry x="335" y="305" width="60" height="60" as="geometry" />
        </mxCell>
        <mxCell id="sWhWIhyuhKPl6AwqvS7Z-12" value="" style="shape=image;verticalLabelPosition=bottom;labelBackgroundColor=default;verticalAlign=top;aspect=fixed;imageAspect=0;image=https://altcoinsbox.com/wp-content/uploads/2023/04/wallet-connect-logo.png;" vertex="1" parent="1">
          <mxGeometry x="400" y="310" width="50" height="50" as="geometry" />
        </mxCell>
        <mxCell id="sWhWIhyuhKPl6AwqvS7Z-13" value="" style="shape=image;verticalLabelPosition=bottom;labelBackgroundColor=default;verticalAlign=top;aspect=fixed;imageAspect=0;image=https://ethereum.org/static/cd7cb3047b95b88dfac4968de3e3347b/65a36/rainbow.png;" vertex="1" parent="1">
          <mxGeometry x="455" y="305" width="60" height="60" as="geometry" />
        </mxCell>
        <mxCell id="sWhWIhyuhKPl6AwqvS7Z-14" value="Cryptocurrency exchanges" style="text;html=1;strokeColor=none;fillColor=none;align=center;verticalAlign=middle;whiteSpace=wrap;rounded=0;fontSize=16;" vertex="1" parent="1">
          <mxGeometry x="320" y="130" width="210" height="30" as="geometry" />
        </mxCell>
        <mxCell id="sWhWIhyuhKPl6AwqvS7Z-15" value="Blockchain Wallet" style="text;html=1;strokeColor=none;fillColor=none;align=center;verticalAlign=middle;whiteSpace=wrap;rounded=0;fontSize=16;" vertex="1" parent="1">
          <mxGeometry x="350" y="365" width="150" height="30" as="geometry" />
        </mxCell>
        <mxCell id="sWhWIhyuhKPl6AwqvS7Z-16" value="" style="shape=image;verticalLabelPosition=bottom;labelBackgroundColor=default;verticalAlign=top;aspect=fixed;imageAspect=0;image=https://legacy.xdao.app/assets/img/logo_full_blue.svg;" vertex="1" parent="1">
          <mxGeometry x="670" y="200" width="175.41" height="50" as="geometry" />
        </mxCell>
        <mxCell id="sWhWIhyuhKPl6AwqvS7Z-24" value="" style="shape=flexArrow;endArrow=classic;html=1;rounded=0;endWidth=11.830985915492958;endSize=6.470422535211267;width=5.633802816901409;entryX=0;entryY=0;entryDx=0;entryDy=0;" edge="1" parent="1" target="sWhWIhyuhKPl6AwqvS7Z-16">
          <mxGeometry width="50" height="50" relative="1" as="geometry">
            <mxPoint x="520" y="100" as="sourcePoint" />
            <mxPoint x="700" y="210" as="targetPoint" />
          </mxGeometry>
        </mxCell>
        <mxCell id="sWhWIhyuhKPl6AwqvS7Z-26" value="&lt;b&gt;Step 1: &lt;/b&gt;Transfer 10USDT/USDC to DAO as GAS Fee" style="edgeLabel;html=1;align=center;verticalAlign=middle;resizable=0;points=[];" vertex="1" connectable="0" parent="sWhWIhyuhKPl6AwqvS7Z-24">
          <mxGeometry x="-0.1885" relative="1" as="geometry">
            <mxPoint x="39" y="30" as="offset" />
          </mxGeometry>
        </mxCell>
        <mxCell id="sWhWIhyuhKPl6AwqvS7Z-25" value="" style="shape=flexArrow;endArrow=classic;html=1;rounded=0;endWidth=11.830985915492958;endSize=6.470422535211267;width=5.633802816901409;entryX=0;entryY=1;entryDx=0;entryDy=0;exitX=1;exitY=0.5;exitDx=0;exitDy=0;" edge="1" parent="1" source="sWhWIhyuhKPl6AwqvS7Z-13" target="sWhWIhyuhKPl6AwqvS7Z-16">
          <mxGeometry width="50" height="50" relative="1" as="geometry">
            <mxPoint x="530" y="340" as="sourcePoint" />
            <mxPoint x="660" y="260" as="targetPoint" />
          </mxGeometry>
        </mxCell>
        <mxCell id="sWhWIhyuhKPl6AwqvS7Z-27" value="&lt;b&gt;Step 1: &lt;/b&gt;Transfer 10 USDT/USDC to DAO as GAS Fee" style="edgeLabel;html=1;align=center;verticalAlign=middle;resizable=0;points=[];" vertex="1" connectable="0" parent="sWhWIhyuhKPl6AwqvS7Z-25">
          <mxGeometry x="-0.3715" y="-3" relative="1" as="geometry">
            <mxPoint x="55" y="-14" as="offset" />
          </mxGeometry>
        </mxCell>
        <mxCell id="sWhWIhyuhKPl6AwqvS7Z-28" value="" style="group" vertex="1" connectable="0" parent="1">
          <mxGeometry x="370" y="-130" width="280" height="50" as="geometry" />
        </mxCell>
        <mxCell id="sWhWIhyuhKPl6AwqvS7Z-54" value="" style="group" vertex="1" connectable="0" parent="sWhWIhyuhKPl6AwqvS7Z-28">
          <mxGeometry width="280" height="50" as="geometry" />
        </mxCell>
        <mxCell id="sWhWIhyuhKPl6AwqvS7Z-20" value="&lt;font face=&quot;Tahoma&quot; style=&quot;font-size: 28px;&quot;&gt;&lt;b style=&quot;&quot;&gt;Receive $orcp&lt;/b&gt;&lt;/font&gt;" style="text;html=1;strokeColor=none;fillColor=none;align=center;verticalAlign=middle;whiteSpace=wrap;rounded=0;spacing=0;spacingLeft=0;textOpacity=90;" vertex="1" parent="sWhWIhyuhKPl6AwqvS7Z-54">
          <mxGeometry x="50" y="10" width="220" height="30" as="geometry" />
        </mxCell>
        <mxCell id="sWhWIhyuhKPl6AwqvS7Z-55" value="" style="shape=image;verticalLabelPosition=bottom;labelBackgroundColor=default;verticalAlign=top;aspect=fixed;imageAspect=0;image=data:image/png,iVBORw0KGgoAAAANSUhEUgAAAgAAAAIACAYAAAD0eNT6AAAACXBIWXMAAAsTAAALEwEAmpwYAAAAAXNSR0IArs4c6QAAAARnQU1BAACxjwv8YQUAAD8LSURBVHgB7d17rGxnXf/xD6eHlnJrC7SAYM9TuZRb6KmAeCF2IX+AILS/KEaiOCM0ATWxQCJiSNxTjCAqtGCi4Q/dU4IRidBWQlTQzBANEAr0NBTaJpS1jqW0tMVzSm3T0sv+7e/MnnNm77MvM3vP86zvs9b7lXzZZ1/o3jPr8nyf73NZjxKAHITVOH0twtTXzIG1j5PvT39Pm3xvFtXUv4+uxcbvHZ76/OiGqATAtUcJQJ0mDbqFNeTnrMZpU1+bt+H2ZJIITJKC61bjiMaJg31+SOsTCwAJkQAA8YXVOKjjDfyBtc9zbtwXZZIkWFhiUGqcKEwSBACRkAAAixN0vKE/uBb2tbY38nthSUClcVIw+TeJAbAAJADA/CZl+wtEQ1+HSXXAkoJJxWAoAHMhAQB2Zg38dGN/UPDo0FoMdbxiAGALJADAetaLtwb+otU4T8fH6pGfSaXgixonBUw6BKaQAKDtrHEv1mLSy0dzTScEFiQEaC0SALTNdA+fBh+ThOAqMY8ALUMCgDaYjOFfJEr62N5Q42TAkgLmEKDRSADQRNO9/At14q54wCwqjROCK0R1AA1EAoCmsEbfGvyO6OVj8WyuwFDHqwOVgMyRACBn1shbg28NfyEgneFq9EUygIyRACA3NPrwZiiSAWSIBAA5oNFHLoYaJwNXiyWGcI4EAJ4Vq3HJ2kfG9JGbvsaJwFUCHCIBgDeFxkv23iEafTRDpXFl4FIxRABHSADgASV+tMVQDBHACRIA1KnQ8aV79PbRJtb429AAVQHUhgQAqU2v1y8EYKhxVeAKAQmRACAVa/htQh9j+8DmKjFXAECDFKtx5WqsEAQxcyyLB1UhMioAiKVYjSVR5o+lmvp4VMcnlB3e5Gcmpn9uO2Gbzw9s+NrpaxGEGIZieACRkABgkSaz+a3MH4TdqKbi7tUo1z5OvjZrI16H6WTAPlqycMbax8nX6NXuTrUaPZEIYIFIALAIjO/PzhrvSuNHzR6e+vfk620QtD4hOG/q35w/26s0TgTYdhh7RgKAvaDh35o16NawX6dxL94+VuKmvZPppOCctY8kBieqdHxooBKwCyQA2A0a/vUqjRv7oca9+kPiprxoQeNEYJIcHBTDTKYSiQB2iQQA86DhX9+zH64FO7rVw87BQuNk4AK1u1JQiUQAQAR2U7UZ/UeU11KqRUSp8ZIsS3yYwOafHaOuxktP7dh5P79inK9LojoCYI/a2PDba13WuBEJQu6Cxseyr3YlBKXGK3IAYG5dtaPht9c40LiHH4SmswqBHWs75jmcnyQCAJIpVuNa5XWT281N8fK118okxnYr1I7qQCkSAQBbKNTsXtFA9PKxvaDmVwcG4hoAsMZ6wJcpr5vYvI0+vXzMK2g8DGbnUA7n+ryxLBIBoNWW1Lxx/oFo9LFYQc1MBkqN7wEAWqRQs8Y8B6LRRxpBzUsGSjE/AGi8oObcuEqN90Sn0UddgsbnoJ2LOVwzO8WyGBYAGmlJ+Zf77e+fzN4HPCk0Xk3QhCG1JQFohEL591AGosSPPNg52lX+S2lLsfMlkK3cZ/fT20furAHtK++qwLIYFgCycpHyvelYz4nePpokaFwVKJXXtTiJUkwSBNwLyneS30D09tF8hcYPKsrlupyOZVENAFyyXnNuvf5JmZ+xRrRN0Hh4IKfr1aIU1QDAjaD8ev3W8PdEmR8IynMp4bKoBgC1ym2sn4Yf2FpXeSUC9rd2BCApa0BzGkcsxY0CmFVXeSUCy6IaACRRKJ+bg/2dHQHYja7yutYLAYgml3X9djPoCMAidJVPIrAkAAsVlMfOYjbG3xGAGLrKIxGwvzEIwJ7lsLyPyX1AOl35TwTsnvAOAdiVHLbypeEH6hE0vvY83x8slsX9AZhLkP8MnwsbqF+Q/w2FSjEkAMzEe8l/IGb7At4E+d4QjCEBYBveS/6laPgB77ryXT28TADWCfI7y59xfiA/Pfm8n0w6E0EARr1qryX/gbhQgVwF+Z0fUIqKIlrOxvu5OAHE1JXfYYElAS1j5fRl+bwge6LcDzRRTz7vOcwLQGsE+RzvH4hyP9B0QT6rAaW4/6DhDsrfxcfyHKB97Jr3NveoFEkAGqojfxfcQFxwQFsF+ZskaPfIiwQ0yJL8XWT0+gGYrvxVJpcENIC3zX0GotcPYL0gfzsJMjkQ2bKZ9J4uKHr9AHbibW7AlWJVEjIT5Gum/7Wi1w9gNkG+hgRKcf9CJoJ8XTyXCwDm15Of+1gpkgA452mZn/0dhQBg9wr5uqcdFOBQIT9jZ4ybAViUID/LBe0eSxIAVzrycXFYMNEPQAw9+bnPdQQ44OWBPqXIjAHEFeRnSIDODmq1JB8XwkCU/AGkETQeZvRw71sSUAM78TxcAD0BQHo9+bgHLglIyE64uk96mwxTCADqY/v2lyIJQEvYiVb3yc7GPgC8CCIJQAvYCVb3Sd4X4/0AfLF7Ul8kAWgoO7HqPrl7AgC/eiIJQMPYCVXnCW3j/V0BgH82L6DuTdGWBCyAnUh1nsilWN8PIC9B9c8LWBKwB3YC1XkCM9kPQK6CSAKQKTtx6jxx2c8fQO7sHlb3pkFLAuZQ9/a+PMIXQJP0VO89lW2DMZOO6j1RewKA5ump3ntrR8A2bLJdnScoWSqAJrN7XJ332ELAJqzxr2vpCsv8ALRFV/Xea1lVhXWC6putygkJoG3q7HCVYnUV1gTV1/jb76XxB9BGQfXee4PQarZEhRMQAOoRVN892PZZYal1i9W1PrUUjT8AmKD6koCB0EqXicYfADwIqi8JuExolSXR+AOAJ0H1JQFLQivYk6po/AHAn6D6koCO0GhB9Sw9KUXjDwCzCKonCWBJdoMF1XNS0fgDwHyCuF9jgTiZACAfQfXct1ke2DB1zPgvReMPAHsRVE8SsCw0wpJo/AEgV0H1JAE8nC1zhdKfNDaRJAgAsCh1PTugELIUlD5rZBYpAMRRRxJAhy5TpdKeKBZdAQBi6Sr9fZ1JgZmpY9If40UAEJ/da1Pf39kuOBOXKP3J0RMAIJWe0t/n6eQ5F5R+jKgnAEBqlyvtvZ75AI7ZGE2ptCfElQIA1CX1I91LMR/Apb44EQCgTewebJP0Ut77mQ/gTOpx/1KUggDAg6D01V/mAzgRlHbcn3EgAPAl9R4BtANOlEp30C0uEgDAm67StgXXCrVaUtoD3hMAwKue0rYJzAeoSaG0B3pZAADv+krbNhRCUkFpS//2u5jxDwD+pV4ZQPuQWF9pD24QACAXQWknBbInTCJdpTuoFkz6A4D8FKKtaJSgtKX/ngAAueopXXvB0sDI+kp3MCnpAED+BkrXbgyEKLpKdxBLkckBQBOkfk4MuwQuWFDaAxgEAGgK2ykwVfvBUMCC9ZXu4PUEAGga65mnakcGwkJ0le6gLQsA0FQpHx/MqoA9CkpX+i9F2QYAmizlfIAjYoOgPekrXbZWCADQdIXStSs8K2CXUk7a6AkA0BaXK137UghzK5Xm4JQCALRNqucF0MbMaUlpDgzLNQCgnYLSPS+gJ8wkKM0BsWDDBgBor1RLA+lszqivNAdkIABA21lbQJvjQFdpDkQpsjEAQNqhgELYkjXMKQ5CRwAAjKUaCiiFTS0pzQFYFgAA6w2Upg3qCesEpen9MxEDALCZoDRDAewQuEFfaTIvZv0DALaSaiiAHQLXBKV5w0sBALC9gdK0SYWQ7M0OAgBge0Fp2qSBWq6rNG90TwAAzKanNG1ToRo9SvUqFb9nXq3GOUITnb5FzKpa+3h0LSoBwPg+Ys8KCIrr0Gqcr5rsV326SlOW7wm5Cho/FfKAxkncaWuf76axn0e1FpYUHNY4Ub1u7fNDAtB0dq3/juKX6e1+1lmNK1SDOisAKXr/fY0PInwLGpfCJo39Qfmes2FJQKVxUjD5N4kB0DyWABSKy5KNc9Y+tkJXacZXguCN9dov0vh53HZxpdqCM3YcWXs9l6+9viAAuQtKc4/qqSWC0mz60xM8sAa/q3HDmOK4ewobQ1wWCQGQs57i3ytasznQkuK/maVQp0Lj4zxQ2gY3h4TgcrH+F8iJNcyl4t8fekos9RyAoHGjEBRXVzVNqmgpu0Bs3N56uh2xzeUsqtUYrsbVq3GVgGYo5CvBtYZ7EW1BofgTAhs/F2BJ8bOo2AcJxxUa92ibMo5fV9j7tywqA8jfQL6urY4WJ8Vr66mhgtKUUYIQU6FxIkejHydKjZOBICAvQf6up6DFKaTof29j5wIsKf6btyzEYCfkJWJMP3XYnIGOgDx05e/6WbS+FP3v7qlhguj95yiI3r6HKEVVAP4N5Ou6eYcWzzpDse+HjasCLCn+we4Ji1KI3r7XuFLMFYA/Qf6ulaA4elL0v72nhgiK3/svRe9oEQrR8OcSpRgegB9d+bo+YpT/J6gCzKGr+Ae7I+xFVzT8uUYpzn/UbyBf10VPcfUk5f4akigV/waI3SnUvt35mhqlSARQD+uperseDiouqgAz6Cr+ge4I8ypEj7+pUYprAml15e8aSKErKfZriTGRMRk7EE040E1hWfFA6S9IIn0MxLwYpGETUz2d+5crnVJxX0upTHUV/0B3hFlYGekypb8QifpjWSQCiKeN5f9pXcV/PYUyNFDcN6UUZmEb+LCOv91RKvNSItyy5394O9dTKxX3NQ2UGcvAYh/ojrCdQpT7ifVRimoAFqsvX+f4stLrKv7rKpSRvuLfyLA5yv3ETmHnB09sxCJ4qy4WqkepuK/rSmUiKP5B7gibKcSyPmK2KMWOgtgbyv/HdRX/9WWRtPfV3IPsFb1+YrdBNQC71Zevc3lZ9YpdDekpA6XivgkdYZrNt4j9nhPNjlLMDcD87LzxdB4XqldPcV+f+42Buop/o8JxNsN/hSAWFEsCZlPI17lbqn4pdgfsyLGB4r74nmDsRIv9XhPtDJtsFARsry9f5+2yfOgp7uscyKmg+Ac5CIUo+RNxo1TazVSQHztHPJ2zF8qHFFWAQg71FfdFLwuU/ImUsSTgRIV8nadH5IttRRzz9abc6ngmKbKeoPZilj9RV7BKABv15escXZYvsTfCczcZsKu4L/gqtVdYjWuV/qIiiEmUYvgNx9n54On89FL+nzZQ3Nfsamvv2C+2UDuxxI/wEqVIAuCv/L8inwrFfc0DOREU/8bTRrbLFg/xITyFnY92XqK9Yo9vzxueq8OxK7d7nqi7T3vXU1w9tY9N9rPlWIy9whM7H+28XBLaylu53fMe+VcoLhfJeKm4PY6gdrGb6wpBOI8loW1SPOV13vDcSYo9Ob721Q+xHwaxrHZZUvoLiCB2G0tCm1D+n1/s96xQjfqK++LatBkJy/yIHGNZaAtvq5E68q9Q3PegtiGQ0xX3hV2r9lhW+ouHIBYVy0LTBfk774LyMFC892BPewLsZRJg7AkI7nY7imRZ430UgFx1RRLQdN5WfwxXo1IerlY81vh3VQO3WU1G7Ka5QhANiWWhqSj/717syYADJRbEjWSvGPMnmhjLQtME+TvPgvISezLgrjrMux0CKBRX7PWTdVuSs60cgQXpitUBTVPIl6HyKf9PxF6x0FVCA8XLZEo1m90cVwii4bEkNMVAvs6tjvJUKt57MlAiQXEPbk/NtaT0FwtB1BVLQu6C/J1XQXnqKe77kmTeXFeK+iKCmin2pkkE4TE6Qs668nU+5bw8PPbS+STDygMp2gsYqJlsQyMe7EO0Mey8b9OGXk0zkK/zKfe5UzHfz4EiC1K0P96io+YJ4pG+RLujFI8SzlGQv3MpKG+WwMR8f+YaBph3FUChuL6oZrGDMRA3P7Rb0Pg64OmWeSnkyyHlN/t/o77immvDpnkTgJiPghwq/4O7ka39DAIQNN77AvnoyJeYO+qlclTjti6WqMcs5ji2t5Ntr5ZUT4mMIDzHkpCD2BPWdhNNmUsScxgg2i66hRTtj7YIao5C6S8OgsglCsG7rnydM6WaI3ZyVWhG8wwBdBXPUM0p/wexHSqwHXuEaRA8izncuxtNKP9PxB4GiPLgJsvAYmUsHTWHt4dmEITHGAheUf6PL+YwQKkFO6h4f6xFUDMsKf2FQRC5BpMCffK2aVmp5omdZIVZ/ohZhwAKxTNUM8r/liT1BGBW1gsqBG+ilJD3YKjmcTEMMGsCEHM8qAljO0HjcU0A81kW+wN44238v6lPh43Z9i30GNZeqnCur/RlMYJoSiwLXlD+Tyco3vs203LAWSoAheKplH/5vyseeALsRVf+ys5tRfk/nUrx2j9r/HecODlLAhDzhBgqb0FsbAIswrIYCvDgAvnS1PL/RMxhgB3b7v3aWcwTIveD2xPrmRfqrLPO0m7ce++9o4j1O+644w4hKmv8LZl+p1CXQr7uZ5WaXQEwV63GJYpjx7b7UTt83y7KI4pnp9/vWSHWMi/ct7/9bZ199tma1wc+8AH92Z/92Y4/F0LQ9ddfr3kcPnxYL3zhC4UkXqnm3/S96svXcGZ/NX5HzWZtbKl41a8zNF5xsKmdKgCF4hkqb0xciuDUU0/V4x73OM3r0Y9+9Mw/O+9//7GPfayQjF1X52ubmxai8Vb+v0rNZ+e5PeWwUBx2TLccZthpDkCheHJe/melyiAAixY03h8AaRXydU+zhrFJ2/9uJ+brfOV239wpAYiZEQ6VpyA2/AFisjHRIKTUlS9t6P1PxHyt27bh2yUAMy0j2KVK47JHjnoCEJPdexhiS4vyf30qxRvysjZ8y/kF+3b4P8YyVJ4KseYfSKEQ2wSnUshfxaUt5f+JmK93y7Z8uwSgUDxD5YleCZAOe2yk4W3zn7Y1/maoeLY8vtslADFLQl9UfrpiXBJIqRAVtxS87f3fxueqDBXPeVt9o44hgEp5bv9LbwRIryd2CIzJ7vNBvrSxAlApXrs49xDAthMH9ug65acrev9AHYJYFhhTV75Y49/WPSBiVca3nNC/XQIQS47lHXr/QH1sWSBVgDi8zf5v82PVY66MKzb74r55fnhBcqsAdEXvH6iTNf5UARYvKG5nbzdynB+2KEPFs+k8gH3z/PACTLY9zAm9f6B+VAEWz+Ojfyu1l7WNMfcDOEHqIYDcGv+u6P0DHlAFWDxvKyz6Qqw2ctN5fZslAIXiya28Q+8f8CPWY1PbKIjyv0cxh8jDxi9slgDEPCmuVT66ovcPeGI9GPYFWIxCvgzV7vL/xFDxFBu/sFkCEBRPThkevX/An66wCJT/fRoqnhPm9u2b5YcWpFI+6zsL0fsHPCrEMwL2Ksjfe0j5f8zayEpxnFDdTzkEkNPyv64AeEV1bm8K+WIT3yphItZEwLDxCxsTgJg7AOayAiCIcUbAs0IsCdwLb/e3K4RpMXcEDNNf2JgABMWTywTArgB4x5LA3QnyVwG4SphWKZ51Q/z7N3wz5gqAXIYA6P1v4lGPetS2319ZWVHs37Gdpz71qXr5y1+uk08+WaeccsooHvOYx4w+P+mkk7Rv375RnH767juO9vct4nViIWxJYE+YVyFfKP+fKGa1/JzpTzbecW0f5hi7Q9nEhjPkn732Nu9FvSlr+P7yL/9SRVEcawAfeeSRTT8+/PDDo5/Z+HHy/WnWIJtJQ71//3699KUv1W5s1zDvJbEw99xzj6655hrdeuutuvHGG/Wd73xHt99+u77//e/rtttu07333ivU4pWKO2u6iQbylQRcKhK5zRxRnGGu/mr8zuSTjRWAoDhyGf/3tjWmG+eee65e8pKXyKu9NvLbecITnqBf+qVfOvb5dLLxwx/+UDfddJO++tWv6ktf+pJuvvlmXX/99XrwwQeF6Gwy4FCYlTUohXyh/L85azMLLd62Vf6VSHG5/AuK9/qzjtXGdeWzn/3sCra3WuUYffze97638rnPfW7l7W9/+8ozn/nMrI51hsFkwNl15evYlcJWrM2M8Z4fmf4l05MAY47/V/KvELAHkyrEM57xDL32ta/V3/zN34yGDP7zP/9Tb3zjG/XoRz9aWLiuMKsL5cvVwlYqxbFuJcC+Dd+IJYchgI6ABbKE4HGPe9xo+OBTn/qUbrnlFr3nPe/Z00REnMBbo+aVnXTehjj7wlZitpnHVgKkqgB4TwCCqAAgMlup8IEPfEBlWeqP//iP9RM/8RPCnhViGGAWhXyplN/TYVOqFM+xlQDTCUBQHEflfwvgQkAiVgF4//vfr6985SujoQHsWVfYibfe/1DYTqV47WaY/GM6ATigOCj/A5v4yZ/8ydHQwMc//nE9+clPFnaNYYCdeXuP2P1vZ5XiCJN/pKgA3C3fgqgAoEZvfvOb9W//9m96znOeI+xKIYYBtmO9f0/vTyUqALOItXnepnMAguLwXgEoBNTMNkD6/Oc/P5ongF1hD4+tUf7PU6U4jiWD+6a+ECtD9P4MAMqHcCGEoMFgoKc//enC3EgAtnaBfKH8P5tKcRxr7ycJQMwVAN6HAAoBTjz/+c/XX//1Xwtz89bIeVEo7kPe5lWJCsCsYlbPg/3PdAUglkp+FWLsEM786q/+qn73d39XmIvHbW496MqXoTCrmKvnRpP+J88CCIqnkl+FMBN7EI7tcb8d2/jGHuxj49i2AU7M/fmb7n3ve99oYqDtGYCZFaKB2chbZYS9/2dXKZ51TwXsKc6+w97H/weqZw/sRsfTnva0lU6ns3LNNdeseGX79k/27vfq0ksvzeq4O4iBMK2Qr+NzRJhXqTjHYvR8nkkXLdZjgIcaP7LTqxUhqre97W26/PLLR5WBmD7zmc/o05/+tB566CE98MAD+vGPfzwKexyxfc2ezmd78VucccYZOuuss0bx+Mc/Xmeeeaae/exn61nPepZWkxc3lYujR4+Onitw3333CTOxkuk58r/xWCp9+drjpK+pR9FiJgPFqVT3NXUs7JfEyDKW5VeherLg1sVv/dZvrcTW6/Xm/rvsKYcWk89POeWUlXPPPXfl9a9//crf//3fr9x55521Vgnsd1988cWuj63DKISJUr6ODSuu5tdXnGMxsP947EmAh+VXzJUPmPKJT3xCw+FQ3qy2saOYsMrBTTfdpM9+9rN6y1veMtqr3x7k88///M9abYyVmlUi3vSmNzGXYj5c12OFfM3+Nzz9b35RtwPeN/1JBJ5LcRcIyfT7/XWNbQ5s2MASF9uv30rxtmVv6tfwspe9jH0B5lMIxtu+CDT+u1MpjnX7AMSqAJTyqxCSufnmm5Wz22+/XZ1OR6973ev0ve99T6nYHAXbIAgzI7Ef81Zuv1LYjVid6GMJQFA8XjcBCmL9f1L33nuvmuBf//Vf9epXv1p33XWXUrDy/8tf/nJhZnZdB7WbDYME+UIFYHcqxRMsAWjjJkCME2LXvv3tb6vb7SqV5z3vecwDmE+hduvKF2v8WZmxO5XiOT12AuD1oJMAYE8+97nP6R//8R+Vgi1PxFzafn17Gwah/L97MdvQ1iYA5wnYoz/8wz/U//3f/yk2W42AuQS1V5C/BOiLwm7FbEOjDgFU8isI2CPbHtk2IIrtKU95SnYrKGrW5gTf46N/K2EvKkUScxKg5zEfhgCwEF/4wheiN86PfexjhbkEtXeSb0e+9AWvwj7Fw/g/Gu9rX/uaYqP3vytB7RNE+b+JKkUSexmgR0HAgnz3u99VbD/60Y9YBTC/Nib6hXwZivL/IsTqTB+IWQGo5BMVACyMPXDo/vvvV0w/+MEPhLkFtQ/l/2aKtp+OJQAH1C5BwILs379/9ITBmGznQYYB5tbG+1ohXyj/+3ZGzAqA1wcBte3GgIgOHDigk046STEdOnRImFtQuxTyxU7aSliESnGcFjMB8IotgLEwtklPzPF56/l/9atfFeYW1C7eyv9XCO7F3gjIoyBgQYqiUEwPPfSQrr/+emFubbqvBfmrAFwleNe6jYBOFxUALMjTnvY0vfWtb1VMX/7yl3X4sNfRNNfadK0X8oXy/2JViqRtQwA0/liYiy++WGeddZZi+tjHPsYEwN1ry/XurfzPk/8y0bYEIAhYAHtE75/8yZ8oJttq+N///d+FXQtqPktyCvlC+T8TbdwICNiT173udaMtgGMv//urv/or/fCHPxR2Laj5vO39X2k8BAD/Tm/bRkBBwC6dcsop+vCHP6yrr75aT3jCExTTDTfcoOXlZQE7uFC+UP5fvFg7AZ6+X+3CHADsys/93M/pox/9qF760pcqtkceeURve9vbdPfd0TYAa4umX+/2+rxVAPrCokV7rg4JALCNV73qVXrnO9+pV77ylcmeyvfud79b//Vf/yXsWdOv90K+VKL8n5W2JQDAls4444zRuv5zzz131OBbr//xj3980gfx/Pmf/7k+9KEPCZiBt97/UMgKFQA0gi3He9GLXjTaOMfi4YcfHn193759Ovnkk0e9d2vMn/jEJ47i1FNPHX1ujf5P/dRPjWb1P/vZzx79f+p48t4DDzygD37wg1paWhIWpunbfnsb/2f3vwytRIpC/vQV7/US28T555+/sjq2vZKC/Z7VBGAUk99pHycx/XOp/qbt3HPPPSvdbjer45lJLKu5rPfv6b0uhVgKRTpuDAGgcawHv7EXv1mvvo6e/kb//d//rd/7vd/TN7/5TQFzoPyPPWvjw4CA2tn6/t/8zd/UL/7iL9L4YzcukC+U/zNEBQCogc1B+P3f/309/elPH834v+aaa9jyF7Mq5GtPk0pUALIUMwE4TQA2ZZMSf/7nf34U1vB/4xvf0Mc//nF96lOf0u233y5gG135MhSyZEMAsTYZOEMAdmRzEV7ykpfoIx/5iG666abRMsAzzzxTwBa8lf/Z+z+uoEhiJgAA5mRLFN/1rnfplltuGS0J9DBREa4U8lX+t/aD7X/zVDEJEHDInjvQ6/VGQwPPfe5zBazpyhd6/xlrWwJQCcjIwYMHR6sEXvva1wpza+LDFCj/Y2FiJgBBAPbMdjL8l3/5F733ve8V5tK04c1C/u6rlP/jC4rjqCUAlQC4dtJJJ+l973uf3v72twut5W3zHxr/vB1lCADIhD3X4G//9m9HDyrCTCo1i7e9/68Usmb7AMQqkx0QkNgjjzxy7IFA0w8Gsq9P7N+/fzTJztbiW6Nqpjfh8T7z/pOf/KRe8IIXjHYTRGscFOX/tgqKxBKAJk6U2UolNJKtob/88suPJQDW6G+VAFg5ffoJgfYkQQt7MuBpp52mJz3pSXrxi1+sF77whTr77LNH/x9PSYH9rR/72Mf0a7/2a8K2KjVHV75Y488S8rxVMXcC9LgRUCU00tGjR1VV1Tz/l2M96BtuuOGE71mDb1WBZz3rWXre856nV7/61XrDG96gAwd8FLZe85rX6BWveMXoYUJoBW+z/yn/pxPtphNzEiBbASNbkyGBm2++WZ/73Of0B3/wB6P1+C972ctG6/MPHTpU6979j3vc4/Tud79b2FalZggaDwF48kUhd4fbtgywErBLP/7xj/W1r31Nl1566SgRuOiii/T1r39ddXn9618/Gg7Alio1g8dH/1ZCKqcrkjYuA6wE7JHNLbC1+S996Ut18cUX66677lId3vKWtwibatL4dEe+9IWUYiUAVRs3AmLiChbq7/7u73TBBReoLEulZvMAeF7Apg6pGYIo/7ddUBxHYlcAopUu9uA6AQv27W9/e7Q+/4477lBKP/MzPzN6gBBO0JTVTYV8GYoqakox29C7Yz8N0GMCQAUAURw+fFgXXnih7rnnHqXylKc8ZbRKASeo1AyU/9stZht6NHYCEORPU0qDcOgrX/mKlpeXlYqV/88991zhBJXyF+SvAkD5P62geKI/CyDIHxIARGXLBP/3f/9XKdhSRFYCbKoJ13khX+w9rYSUYlYAjk0CjFUFYAgArXPkyBFdccUVSsEqALZ7IU7QhATAW/k/zUmNaUFxjNrB2AlAkD+VSAIQ2ZVXptsozbYzZiXAOkeV/zUe5K8CcJWQWrQlgPY/+6Y/icBr14RhAET1rW99S3feeadSOPXUU4V1KP8vHuX/egTFsa4CcFhxBPnEUkBEZcMAd9+dZiXa5ImGOKYJ17e38j9P/qtHrOcAjG5ObRwCMFQAEN3999+vFGyLYqxTKW9W9i3kC+X/esQaAhi1gbGHAIJ8IgFAdKnG5e+77z5hndyvb297/1finlmXWLtArhsCqBRPkD+VmAiIiPbv359sdv6PfvSjWp9M6NBQebtQvlD+r0dQPKN9y1MkAF6XAlYCIjn77LP19Kc/XSmk3HkwA7n3VO1+6a0C0BfqEBTPujkAleLx9iCLCXa0QjT2qN4Uk/Os559qtUEmcr+uC/lSifJ/XWJ2ntfNAYi5bjbIJ05qRGEN/5vf/OZkcwDsQUQ4ZqC8eev9D4W6xBz/XzcHYPLFGGItY9grZrUiil//9V/X+eefrxTuvfdeffe73xWOyX0JoLfxf3b/q895iqOa/GM6AYjVI/Y6BMA8ACzc0572NL3//e9P1vv/5je/yRyA4yrlfU1b79/TnKlKVADqFOtcOLbvz77NvrhgQX4xuxULY43+hz/8YZ1zzjlK5atf/SorAI4bKm+U/zEtVue5mvxj32ZfXDDLYoJ8Yh4AFuKUU05Rv9/Xm970JqViDf+Xv/xl4Zjch/UukC+U/+tzuiI/B8CkSABMkE/MA8Ce2Xj/ddddp9/+7d9WSrb+//Of/7xwTM7j/4V83ScrUQGoU8yh82Md3xRzAIzneQBDIbrHPOYxjXti3U//9E/rE5/4hL7+9a/r3HPPVWpf+tKXdPQo+1mtGSrv8f+ufBkKdYrZZh67aeyf+mK19o0YZYcgv2zdcCFEdfDgwVHJOvckwJb4/fIv/7Le+ta36ld+5Vf06Ec/WnVZXl5m/P+43Nf/eyv/Ux2tV1A8xzr7+zd8o1KczCPWcoZFGK7GkhDNq171qqQz4xfB/lZrXG1L3wMHDugXfuEXRq/jNa95jc4888zaX8uNN96oK6+8Ujgm5warkK9OknUEmSBdr1ht5rpK/8YEwMbQYiQAXocAzFDxKh+N87rXvU4vf/nLd/y5k046SWeccYZe8YpX6DnPec5oCCC2SaO8Xa94s5+ZfM327n/+85+vF7/4xXruc5+rn/3Znx1t5/vUpz5Vj33sY+WJ9f4feughYaRS3hN6u/KF3n/9YrWZ61b7bUwA7CKK8RzqyUqASj7ZbNdLhG1ZQ/mOd7xj1BOe5WdTeuMb36gXvvCFo0ZxOh5++OFjPfmTTz551JBbMnL66afrKU95ik499VQ98YlPHH3dvj/p+XuuVtxyyy366Ec/KhwzVN4o/2NaUOTHAE9sNgQQy3nymwDYCU8CMIOzzjrLZeP4ghe8YBSL4H2o4r3vfa/uv/9+4Zicl6sV8jdHivJ/vWJWzK+d/mTj00piltHS7Y4yv6F4PPCOHv/4x+uZz3ymUJ/Pfvaz+uQnPykcUynvCoC3zX9o/OsXMwFYNwSwMQGoFK8hLOQbm17s4FnPepae9KQnCfX4n//5H11yySV68MEHhWOGypu3vf+ZWVq/WBMArW1f18nf7HmlleLwvBLAMO61A5scx7KzethchosvvlhlWQrr5Jy4W08vyBcqAPWLVQE4ocK/WQIQazetIN8z7Ydi84ttveQlL2ncZj65+KM/+iN94QtfENaplPc125Uv1vgzFFqvmFvnn9C2b5YAxJwH4G2260a5byYSlQ0BIC1byfCe97xHH/rQh4QT9JQ3b/dDyv/1KxRPtfELmyUAQ8XzSvl2ubAp6/k/4xnPENK5++679Ru/8Rv64Ac/KGwq54Q9yN/+KHSA6pfkGQATKecAGO/zAHg2wBZsnbyts0ca11xzzWgTpU9/+tPCpqxcXSlfHh/9Wwl1i1kVGm78wmYJwAkzBRfI846AE5cKJ3jRi15U6773bXHXXXfpXe9612i3xeuvv17YUu7Vuhgbru1FX/Ag2QRAs2+LH441EdAmOHhPAobKe1vRKKz3zwqAeO677z79xV/8hV72spfpsssu473eXqW8K3VBlP9xIjsnkuwAOLF/mx+OlaEW8t/AWnkxh2pFMs973vNYARCBbev7mc98ZjTOf9tttwkz6SlvhXwZivK/BzHbnOFmX9w/zw8viPd5AMbKi7Y1sOdli8lYw3/22WcLi2Eb+Vx11VX6h3/4B/3Hf/yH7r33XmFmNkSZe2+V8j82E3NTqLmr+kdWYyVC5LKTSU9xXn92sZoArNxwww0rmN8jjzwy+njHHXes/NM//dPKG97whpUnPOEJWR1/Z7GsvAX5e0+D4EGpOMf3yFa/cLua7kDxSlX2XIBKvlnv/4igM888c7QNbYpH+uZoZerpgda7v/POO0eT+b71rW/py1/+8mj//qqqhIXI4d6xna58JTE2HHu+ULegeJ3jobZYgr9/m/+TlQwKxVHIf9nJSo22zWhHLWdLAK1cvVennHLK6PG79iheSybs4UIW9jje0047bbTKYC/zDFYiPsZ38t+2jXmOHj2qH/zgB/r+97+vI0eOjD7/zne+oxtvvHHU6N9666164IEHjj1aGAvTV/5j1d7uJzwDxYdC8Ww5ZLbd3bLQuAoQQ381fkf+BeUzZOHepHGebhQnX9u/f7+e/OQnj3rMIQTNy9bLX3311Tr55JN10kknjWLy37aPk39b8vGnf/qnmoc19jY73zbmsfF625d/u9eEaHLv/Qf5u5/k/p42RV/xkkPr/Q81JyuBxxpzyqm0bknQCpEmyrJc2Y1er3fsv2FzFraK1eRiZV72N+X0HjY0lpW/rny9p9cKXpSKd5y3nMy+b+u/J+qGQDEfeLBobAyUGeuNbxXIVhOuw4584cl/PsR8KqS14Vs+4Gm7BMDEXG7jbSvMrQzFOBlQp77yL1Nbp6eQL1cJHhSKZ9s2fKcEYKh4Yq55XLSeANSlCb1/bx2eSux46kXMtnCw3TfrTABibnu4aNVqfEQAUuurGZPUvHV4KP/7USiePVUAYs8DyGm73Z62GUsBEEUTev92r/NWAegLHhSKZ9vxf7NTAmCYBzBmbyRVACAda/wr5a+QL5Uo/3vRVTw7tt2zJAAxJ4rkNA/A2DMCKgGIrVL+j/yd8NbRGQpeXKB4dmy7Z0kAdiwj7EFQXvtQ2/vwTgGIrafmDLl56+iwqsmHoLjt33CnH5glAYg5D8DkNAxgLKsaCkAsdr9pSiNl9zdPk50rcf/yImbbN5zlh2ZJAEzMGaO5DQOYHLYxBnL1/9QclP+xlZht30xt9qwJQMx5AIXyWQ44UYkdAoEYmjLxbyLmGO9uUP73ISju5NDhLD80awJQKe5F2VV+mBAILFalZm26VcjXHKdKVAC8KBRPpRmH7WdNAAzDAOvZ3AiGAoDFadr11JUvQ8GLmM+FGM76g/MkAAwDnGgo9gYAFqGv5jVQ3sr/7P3vQ1DcCsDMwzzzJAAxlwOarvLUE0MBwF5Uat7y2kK+yv9272b7Xx8KxWPHeTjrD8+TAMReDpjjMIBhKADYG7t+mrbNdle+0Pv3I2b5f66de+dJAEzMGaSF8hwGMEMxFADshs36H6p5KP9jM0FxKwBXzvPD8yYAsU+irvL1DrG/NjCPSs181HYhfzucUv73oVBcUSsAc40v7EKuwwATtoFJ00qZQAx2nbxSzeRt8x8afz9iz/6v5vh57df87GQqFEeh8TBAro1opfFkpmVhV77xjW/o9ttv17xuvfXWmX7uwQcf1Fe+8hXN47bbbhMWzipmlZrJW0dmrrIwogmKWwHoKwFroFciRk/5s02CVgiC2DSa8pS/zRyUv/c717lVTWNJb8zjHJTIQIr2Iko1w7Wq52InCM9Rqtm8Jf9M/vPDzv1Yx3mgXZh3DsBEzDGloPgTJVKw+QCVAExUau64/8QF8oXyvw+F4vbQ+0oo9jBAU0qEHsuBBFFX2PXQZEH+3vMgeNBXw47zQPFezBE1Z9wq9rgPQeQQdh00nbdrfSB4YG2ZtWnujvNuhwBMzGEAe8O6agarZvDoYLSZnf9Nnvg30ZEvfcEDWxYas0PbVw3cZjVO9VVPL4Ag6oy+2iHI33sfBA9iTwivrVp+peK+sELNYQeJlQFEm8LO97YsQevK13s/EDyIPQ9sWXuwlyEAE3v/e287au3FZOezSkDzVWrXzpgd+dIXPIg996X2ZZ4xhwGaNBlwIijuelCCqDtKtav8HOTvGAShbkFx28dSe7TXCoCJWQVo0mTAiUpUAtBcldp3fhfyxR5KVgl1KxS3AzuUA7HHOK5VMwVRCSCaFaXa2fMcyNdxaMOSyxzY9RDzOAc5MVDcF1qomYJIAohmRKl2Nv5B/o5FEOpWKO4xHmgBFjEEYGI/bnJJzVSJ4QDkr1J7z+NCvlD+9+ESxdWXI7H3BLBo8jaiQVQCiDyjVLt7nAP5Oh49oW5BcY/xwibHL6oCYEt9rlBcXTVXJSoByE+ldp+3dhMu5AtP/6tfT3HZMXa3vLZQJlmPY0FUAog8ohRjzV35OyaoV1D84xy0IIuqAJih4i5LsMa/6bNbK417VIcE+GXnJxUr6UL5EnsuFnbWUVxDOb7uuoqb+bShCmDsNcbeZpkgdhN2XrZle9/txH4k+m6i6Y9bzkGpuMe4I8dSTAbsqT16Sn8TIYitog1P9JuVbVPu6diUQt264hhHb7SOqF16Sn8zIYiNweYy6/Xl6/gsC3UrxTFOUhrrqF0KMTmQqCcs4S6EjWJXOueNQqhTV/GPcVAmYo9fl2qfIJIAIm2UYqb/Zij/YyM7BjGP8bIyUij+Sd9R+1h1xcZhVwgicvTFZL+t9OXrWC0Ldeoq/jHOboLnQHHfkFLtZeOxKwQRIay0zXj/9kr5OmaFUKfY58NAGSoU/8TvqL2CGBIgFhulWEq2k0L+jhnq01X8Y9xRpuzk5OSPhyEBYlFh5xEl/5315eu4LQt1KhX3+JbKWIpSdUfoimoAsbuwkr9NasNsSvk6ft52I2yTruIf344ylmJjoFL0XEyQv94J4TvY1W8+hXwdv7btieJNqbjHt1QD9BT/QugJE11RDSC2D3r9u9OXr+O4LNSlq/jHt6MGSFEFaMszAmYVRDWA2DwY69+9Ur6OJeX/egSl6f0HNURP8S+GnrCRzei2E2mFaH1cK5aL7UUhf8cU9VhS/GPbU4NQBaiXTcYslf4GRdQfrOtfDG+rba4S6hAU/9iWauAOnD3Ff+OWha0EMSzQtqDcvzilfB3bjlCHvuIf254aKEUVwKIQthNEItD0GIgNfRbJ3ktvx5jELr2g+Me1VIOfv9FT/DdwIMyiUPztmom0MRAJcAyU/2Hs+op9bHtqMKoA/hQiEcg9BuKcj8kmUHo63h0hta7iH9dSLXj6Zk9p3khKZPMpRCKQWwxEwx9bkL/jHoTUSsU/rj21QKoqQE/YDRvv7CvtDY2YLwai4U/F25M3B0JqS4p/XEu1KLHrKf4baklGEHYraJwI2Im5QtQedj73xDmdGuX/dgviuC5cqirAQFiErvzdCNsSg9W4RAxp1SHI3/kQhJT6in9MS7VQV2kumEJYlMnwgJ2wK0S0sOTYZp4XQp268nVeDISUukpzXDtqqRS9ylL0nmLoavw0uRViYTHQ+CE9nK8+2PHwdH50hJRKxT+mpVqsUJoLpyfEEjROBgZKezNsQhwRJX6vgvydL0FIZUlpjmlHLTcQF09TWCNmPdi+GCbYKqzRX9Y4aaLR96srX+fNtUIqQWmO6UA1e5TqVyjNGzFcjVcKKRVrcYHaPZ49XI0vrn0cCjmwORjnyY+PiB0AUymVpsN4zmpUQrKtNnkqWn2st1toPBxjCV+KVSB1xKSs31t7vfTygXzYcFyK+8SyHPBQATB2kywV/2Z5dDXOF1mXFwen4ry1jzk1mHY+HVqN69Y+TgJAfoLGQy2x70GVxtXoSjXbLx/sRmolriXFZQfWMi+GAnzYrMG0YzRJCM5Z+zj5Wh2O6nhDf1jjRPXw2ueVADRFT2k6IFfIyb3DSwVgItXYyzs1HnZAXuziDFMfw9rXD6x9DBt+dquLudrk34enPj+64SOAZusqTVm+0rhjg00USjdOGwQAaLugdKuWOsK2BkpzIAYCALRdqjZnWdhRULoZ4qwKAID2SjXr3yIIM+kpzQFhKAAA2ikoXWezJ8ylVJoDww5bANA+qdqYUphboTQHx+IyAQDaYknp2pe6ljBnL9UOgRaFAABNVyhdu7Is7Jqt4041RlOKbVsBoMmC0pb+g7AnFyldtnalAABN1Ve69qQjLMRA6Q4aSwMBoHmWlK4dWRYWJijt0+OYtAEAzRGUrv0oRel/4axnnvIAMh8AAPIXlG7c36IjRDFQuoM4EAAgdza3K1W7sSxEE5R2KGBJAIBc2T08VXtRitJ/dClXBVgUAgDkJnVb0RGSSFnS4XkBAJCXoLTj/stCMjZBL+XBvVZMCgSAHKRuH+x3BSGpQukOMBkeAOShr7RtQyHUIuWzAiyWBADwyu7RKduEnlArK8+nPOAdAQC8ST3prxRqF5R2aaD9LnYKBAA/gtK3A0FwIeUugZPMLwgAULegtJP+LHhmjDOp5wOwMgAA6pV6xr/FsuBOHScCjw8GgPqk3BPGohQdP7eC0o4DWVwmAEBqS0p7r2fcPwOp5wNYLAkAkIrdc1Pf5xn3z0Tq+QCcHACQxiVKf3+/XMiGjdGk3h/AoiMAQCx2j019Xy+F7ASlnw/AHgEAEIfdW1Pf00sx7p+tQmlPFpIAAFi8oPSNv0UhZK2OSYGlyBoBYBGC0i/xtugJjdAXSQAA5CaonsafSX8NUtekwFIkAQCwG0H1NP6l0DhB9Z1MQQCAWQVxv8aC1TGLlJMKAGYXVE/jz05/LdBV+hOLJAAAdhZUT+NvcZHQCj2RBACAJ0H1Nf49oVXq2C6YJAAAThRUX+PPjP+WGogkAADqFFRf488j3VusruWBJAEAUG/jb7/3dKHVguo9AYMAoH1sVRb3XtQuqL4TkWcHAGibupZk0/hjU3WekPZ7OwKA5rN7XZ33Wjpc2FShek7KSbxDANBcl6jeeyyNP7bVVb0n6JIAoHns3lbnvbUrYAZ1PEKYJABAU12meu+pVFcxl57qPWFtfSpLVADkzO5hdi+r817aE7ALPdV74pZitiqAPAXVt88KjT8WoieSAACYR51r/Gn8sVA91Xsi29IVnlQFIAcd1bfMj8YfUfRU7wltsSQA8MvuUXXfJ3sCIuip/pN7WUwOBOCL3ZPs3lT3/bEnIKKe6j/JSzEvAIAPQfVP9qPxRzI9+UgCmBcAoE6F6h/vp/FHcj3Vf9JbLAkA0rN7j4d7YE9ADXrycQHYRhtBABCfjfcP5OPe1xNQo7q3DZ5EKZIAAHF5WN8/Cbb3hQtd+bggLJYEAItX95P8pqMrwBHLjD1MhrFYFtUAAIvhYT//Sdg9thDgkKfymP0dhQBg9wr5uqcdFOBYkJ8LxmJJADC/uh/hu7HxDwIyEOQrCeDiATCrIB8b+0zC/pYgICOexs0sbOyMWbMAtmMT/bzMZbIYiK3PkbHL5edimlxQQQBwXJCftf2TuFxAA/Tk68IqNX5kJwB46/Vb9AQ0iO3b7+0iWxbVAKCtgvz1+u0e2RXQQEG+JgdOLjjmBgDt4rHXX4plfmi4IH9JwOTiCwLQZEH+ev0WzPRHq3ibHDiJJQFoGptJb9e2x3tOX8z0Rwv15POCLMUkQaApCvmsOlow/IhWK+T34lwWZTkgV0E+y/0W7OkPrAnymwRYLAlALiblfm+T/CbBeD+wCa/zAixKMSwAeFfId2fC7nGM9wNbsDExr5m7xUBk74A3hfyW+y1YbgzMKMh3Fm+xLBIBoG7Wm+7L972iFPcKYC45XNgWS+LiBlLzPs4/CUr+wB54HxKYZPgdAYgtl4afkj+wIEH+hwRIBIC4usrjPsAsfyCCnvxf/CQCwGJ1lUfDb8EjfIGICuVzM7C/syMAu9FVXtd6IQDRBeUxQZBEAJhfV/k0/BZXiol+QHJd5XWjsL+1IwAb5TK5bzrsb71IAGoTlFc1YJIILImJQkCODb/FQFy/gBtd5VUNmMSyuJGgfQ5qPGEut4af5X2AU0H5VQMmYeOIhYBmK+R7y97tYiCSdcC9rvKsBqzo+DyBIKAZrMx/icbr43O4BjcGY/1AZoLyrQZMbjrLGpdKgRwVyrPMPx1s5QtkzBrQUnnddDaG9Zw64kYE/ya9/YHyusY2RimG5IDG6CmvG9BmMakKFAJ8KZR/b39yjfUEoHGC8h4WmI5S455WEFCPyRI+Oxe9Xy+zxEBcT0DjddWcm9bkxtURNy/E15QS/3SUoqoGtE5PzUoESAYQQxMbfQvK/UDLBTVnWIBkAIvS1EZ/EszuB3BMUHNvdpNkgDkD2E5Qsxv9yXVQCAA20VXzhgU2RilWE2DcAy407g3bOeH9vN1LXCvOdwAz6qr5N8VJDDTu+bHpUPMFHe/l575kb5aw19gRAOxCV+1JBFZ0vDrQEcMFTRA0PoftmLahwZ9u+HtinB/AHgU1c8XArAmBPaioIyoEObBjZD38ZbXzfKXhx8weJWB2QePeVEft7R0fXY1Dq/HFtY/Dta8hvckYvsV5Gjf+bW347Bz8iMbzGTgfMRMSAOxGEInAtErjZOC6tY+H1r6GxQkaN/AHNG7wD4pzz9DwY9dIALAXQSQCW5lUCiwpKHU8OeAmvb2wFtajP0f07LdCw489IwHAIgSNe2VLIhHYySQxsI/TSUGl9lQNgsYN+qQXf2Dq3zT026Phx8KQAGDRuiIR2IvphOCwxpO6Dk997aj83vhPX4uwFqdp3Is/beprQdiNSuNG/wrR8GNBSAAQS1fjoYFCiKHS+mSgWvt4eMPPaJvPNzNpxKeFqX8f2PBzYZOfweIMV+PStY8AkBUr7faV11Iqgqg7bOlpISAiKgBIJWi8PvkC0VsENsP4PpIiAUAdumJ4AJgYalwlu1o0/EiIBAB1ChpXBS4Us7/RLtbQ24S+q8T4PmpCAgAPrPG/SFQF0HxDjRt9ZvOjdiQA8CaIuQJolsnYvjX8hwQ4QQIAzy7S8coAkBNr9IcaN/xDAQ6RACAHDBEgF0NR4kcmSACQm6BxEkAyAC+GotFHhkgAkLMgkgHUYygafWSOBABNETROAi5c+8iyQizS5CFOk6V7NPrIHgkAmqrQeMMhVhNgtyqNN+eZzN6n0UejkACgDex5BJYI2ETCQsDmJr18a/C/KJbsoeFIANBGhcbJgCUFB4U2s0beGnt6+WgdEgC0nc0VKNaChKD5Jg3+cC1o8NFaJADAepYQWBJQ6HhCwITCPE1K+teJHj5wAhIAYGcHdTwpOE9UCbw6NBWM4QM7IAEAdqfQOBk4R8eTAioFaVgvvtL6xr4SvXtgLiQAwOJYEhDWPp439W/szsaG/vDax0oA9owEAIhvUh2YVAwOaJwcBFE1OKrjY/XWwJeioQeSIAEA6jWZdGgfLTE4Q+NE4fS1CMo3SZg07tVa3K3jDfzka5TtgZqQAAB5CDqeFEwnB+bA1M9MTH5Gm3xvJ5OGe1q1yfcOb/hepfWNPgDH/j+CmS9xTGJMagAAAABJRU5ErkJggg==;" vertex="1" parent="sWhWIhyuhKPl6AwqvS7Z-54">
          <mxGeometry x="2" width="50" height="50" as="geometry" />
        </mxCell>
        <mxCell id="sWhWIhyuhKPl6AwqvS7Z-37" value="" style="shape=flexArrow;endArrow=classic;html=1;rounded=0;endWidth=11.830985915492958;endSize=6.470422535211267;width=5.633802816901409;entryX=0;entryY=0.5;entryDx=0;entryDy=0;" edge="1" parent="1">
          <mxGeometry width="50" height="50" relative="1" as="geometry">
            <mxPoint x="520" y="90.77" as="sourcePoint" />
            <mxPoint x="660" y="-1.9999999999997726" as="targetPoint" />
          </mxGeometry>
        </mxCell>
        <mxCell id="sWhWIhyuhKPl6AwqvS7Z-38" value="&lt;b&gt;Step 2: &lt;/b&gt;Verify identity and submit bitcoin addr" style="edgeLabel;html=1;align=center;verticalAlign=middle;resizable=0;points=[];" vertex="1" connectable="0" parent="sWhWIhyuhKPl6AwqvS7Z-37">
          <mxGeometry x="-0.1885" relative="1" as="geometry">
            <mxPoint x="25" y="-10" as="offset" />
          </mxGeometry>
        </mxCell>
        <mxCell id="sWhWIhyuhKPl6AwqvS7Z-42" value="" style="group" vertex="1" connectable="0" parent="1">
          <mxGeometry x="690" y="-20" width="218" height="36" as="geometry" />
        </mxCell>
        <mxCell id="sWhWIhyuhKPl6AwqvS7Z-50" value="" style="group" vertex="1" connectable="0" parent="sWhWIhyuhKPl6AwqvS7Z-42">
          <mxGeometry x="-30" width="218" height="36" as="geometry" />
        </mxCell>
        <mxCell id="sWhWIhyuhKPl6AwqvS7Z-41" value="&lt;font size=&quot;1&quot; face=&quot;Tahoma&quot; style=&quot;&quot;&gt;&lt;b style=&quot;font-size: 20px;&quot;&gt;Verify Program 2&lt;/b&gt;&lt;/font&gt;" style="text;html=1;strokeColor=none;fillColor=none;align=center;verticalAlign=middle;whiteSpace=wrap;rounded=0;spacing=0;spacingLeft=0;textOpacity=90;movable=1;resizable=1;rotatable=1;deletable=1;editable=1;locked=0;connectable=1;" vertex="1" parent="sWhWIhyuhKPl6AwqvS7Z-50">
          <mxGeometry x="38" y="3" width="180" height="30" as="geometry" />
        </mxCell>
        <mxCell id="sWhWIhyuhKPl6AwqvS7Z-43" value="" style="shape=flexArrow;endArrow=classic;html=1;rounded=0;endWidth=11.830985915492958;endSize=6.470422535211267;width=5.633802816901409;exitX=0.988;exitY=0.633;exitDx=0;exitDy=0;exitPerimeter=0;" edge="1" parent="1" source="sWhWIhyuhKPl6AwqvS7Z-13">
          <mxGeometry width="50" height="50" relative="1" as="geometry">
            <mxPoint x="520" y="340" as="sourcePoint" />
            <mxPoint x="660" y="410" as="targetPoint" />
          </mxGeometry>
        </mxCell>
        <mxCell id="sWhWIhyuhKPl6AwqvS7Z-44" value="&lt;b&gt;Step 2: &lt;/b&gt;Submit Bitcoin Addr to contract" style="edgeLabel;html=1;align=center;verticalAlign=middle;resizable=0;points=[];" vertex="1" connectable="0" parent="sWhWIhyuhKPl6AwqvS7Z-43">
          <mxGeometry x="-0.3715" y="-3" relative="1" as="geometry">
            <mxPoint x="52" y="12" as="offset" />
          </mxGeometry>
        </mxCell>
        <mxCell id="sWhWIhyuhKPl6AwqvS7Z-45" value="" style="group" vertex="1" connectable="0" parent="1">
          <mxGeometry x="660" y="400" width="220" height="36" as="geometry" />
        </mxCell>
        <mxCell id="sWhWIhyuhKPl6AwqvS7Z-47" value="&lt;font size=&quot;1&quot; face=&quot;Tahoma&quot; style=&quot;&quot;&gt;&lt;b style=&quot;font-size: 20px;&quot;&gt;Verify Program 1&lt;/b&gt;&lt;/font&gt;" style="text;html=1;strokeColor=none;fillColor=none;align=center;verticalAlign=middle;whiteSpace=wrap;rounded=0;spacing=0;spacingLeft=0;textOpacity=90;movable=1;resizable=1;rotatable=1;deletable=1;editable=1;locked=0;connectable=1;" vertex="1" parent="sWhWIhyuhKPl6AwqvS7Z-45">
          <mxGeometry x="38.34862385321101" y="3" width="181.65137614678898" height="30" as="geometry" />
        </mxCell>
        <mxCell id="sWhWIhyuhKPl6AwqvS7Z-56" value="" style="shape=image;verticalLabelPosition=bottom;labelBackgroundColor=default;verticalAlign=top;aspect=fixed;imageAspect=0;image=data:image/png,iVBORw0KGgoAAAANSUhEUgAAAgAAAAIACAYAAAD0eNT6AAAACXBIWXMAAAsTAAALEwEAmpwYAAAAAXNSR0IArs4c6QAAAARnQU1BAACxjwv8YQUAAD8LSURBVHgB7d17rGxnXf/xD6eHlnJrC7SAYM9TuZRb6KmAeCF2IX+AILS/KEaiOCM0ATWxQCJiSNxTjCAqtGCi4Q/dU4IRidBWQlTQzBANEAr0NBTaJpS1jqW0tMVzSm3T0sv+7e/MnnNm77MvM3vP86zvs9b7lXzZZ1/o3jPr8nyf73NZjxKAHITVOH0twtTXzIG1j5PvT39Pm3xvFtXUv4+uxcbvHZ76/OiGqATAtUcJQJ0mDbqFNeTnrMZpU1+bt+H2ZJIITJKC61bjiMaJg31+SOsTCwAJkQAA8YXVOKjjDfyBtc9zbtwXZZIkWFhiUGqcKEwSBACRkAAAixN0vKE/uBb2tbY38nthSUClcVIw+TeJAbAAJADA/CZl+wtEQ1+HSXXAkoJJxWAoAHMhAQB2Zg38dGN/UPDo0FoMdbxiAGALJADAetaLtwb+otU4T8fH6pGfSaXgixonBUw6BKaQAKDtrHEv1mLSy0dzTScEFiQEaC0SALTNdA+fBh+ThOAqMY8ALUMCgDaYjOFfJEr62N5Q42TAkgLmEKDRSADQRNO9/At14q54wCwqjROCK0R1AA1EAoCmsEbfGvyO6OVj8WyuwFDHqwOVgMyRACBn1shbg28NfyEgneFq9EUygIyRACA3NPrwZiiSAWSIBAA5oNFHLoYaJwNXiyWGcI4EAJ4Vq3HJ2kfG9JGbvsaJwFUCHCIBgDeFxkv23iEafTRDpXFl4FIxRABHSADgASV+tMVQDBHACRIA1KnQ8aV79PbRJtb429AAVQHUhgQAqU2v1y8EYKhxVeAKAQmRACAVa/htQh9j+8DmKjFXAECDFKtx5WqsEAQxcyyLB1UhMioAiKVYjSVR5o+lmvp4VMcnlB3e5Gcmpn9uO2Gbzw9s+NrpaxGEGIZieACRkABgkSaz+a3MH4TdqKbi7tUo1z5OvjZrI16H6WTAPlqycMbax8nX6NXuTrUaPZEIYIFIALAIjO/PzhrvSuNHzR6e+vfk620QtD4hOG/q35w/26s0TgTYdhh7RgKAvaDh35o16NawX6dxL94+VuKmvZPppOCctY8kBieqdHxooBKwCyQA2A0a/vUqjRv7oca9+kPiprxoQeNEYJIcHBTDTKYSiQB2iQQA86DhX9+zH64FO7rVw87BQuNk4AK1u1JQiUQAQAR2U7UZ/UeU11KqRUSp8ZIsS3yYwOafHaOuxktP7dh5P79inK9LojoCYI/a2PDba13WuBEJQu6Cxseyr3YlBKXGK3IAYG5dtaPht9c40LiHH4SmswqBHWs75jmcnyQCAJIpVuNa5XWT281N8fK118okxnYr1I7qQCkSAQBbKNTsXtFA9PKxvaDmVwcG4hoAsMZ6wJcpr5vYvI0+vXzMK2g8DGbnUA7n+ryxLBIBoNWW1Lxx/oFo9LFYQc1MBkqN7wEAWqRQs8Y8B6LRRxpBzUsGSjE/AGi8oObcuEqN90Sn0UddgsbnoJ2LOVwzO8WyGBYAGmlJ+Zf77e+fzN4HPCk0Xk3QhCG1JQFohEL591AGosSPPNg52lX+S2lLsfMlkK3cZ/fT20furAHtK++qwLIYFgCycpHyvelYz4nePpokaFwVKJXXtTiJUkwSBNwLyneS30D09tF8hcYPKsrlupyOZVENAFyyXnNuvf5JmZ+xRrRN0Hh4IKfr1aIU1QDAjaD8ev3W8PdEmR8IynMp4bKoBgC1ym2sn4Yf2FpXeSUC9rd2BCApa0BzGkcsxY0CmFVXeSUCy6IaACRRKJ+bg/2dHQHYja7yutYLAYgml3X9djPoCMAidJVPIrAkAAsVlMfOYjbG3xGAGLrKIxGwvzEIwJ7lsLyPyX1AOl35TwTsnvAOAdiVHLbypeEH6hE0vvY83x8slsX9AZhLkP8MnwsbqF+Q/w2FSjEkAMzEe8l/IGb7At4E+d4QjCEBYBveS/6laPgB77ryXT28TADWCfI7y59xfiA/Pfm8n0w6E0EARr1qryX/gbhQgVwF+Z0fUIqKIlrOxvu5OAHE1JXfYYElAS1j5fRl+bwge6LcDzRRTz7vOcwLQGsE+RzvH4hyP9B0QT6rAaW4/6DhDsrfxcfyHKB97Jr3NveoFEkAGqojfxfcQFxwQFsF+ZskaPfIiwQ0yJL8XWT0+gGYrvxVJpcENIC3zX0GotcPYL0gfzsJMjkQ2bKZ9J4uKHr9AHbibW7AlWJVEjIT5Gum/7Wi1w9gNkG+hgRKcf9CJoJ8XTyXCwDm15Of+1gpkgA452mZn/0dhQBg9wr5uqcdFOBQIT9jZ4ybAViUID/LBe0eSxIAVzrycXFYMNEPQAw9+bnPdQQ44OWBPqXIjAHEFeRnSIDODmq1JB8XwkCU/AGkETQeZvRw71sSUAM78TxcAD0BQHo9+bgHLglIyE64uk96mwxTCADqY/v2lyIJQEvYiVb3yc7GPgC8CCIJQAvYCVb3Sd4X4/0AfLF7Ul8kAWgoO7HqPrl7AgC/eiIJQMPYCVXnCW3j/V0BgH82L6DuTdGWBCyAnUh1nsilWN8PIC9B9c8LWBKwB3YC1XkCM9kPQK6CSAKQKTtx6jxx2c8fQO7sHlb3pkFLAuZQ9/a+PMIXQJP0VO89lW2DMZOO6j1RewKA5ump3ntrR8A2bLJdnScoWSqAJrN7XJ332ELAJqzxr2vpCsv8ALRFV/Xea1lVhXWC6putygkJoG3q7HCVYnUV1gTV1/jb76XxB9BGQfXee4PQarZEhRMQAOoRVN892PZZYal1i9W1PrUUjT8AmKD6koCB0EqXicYfADwIqi8JuExolSXR+AOAJ0H1JQFLQivYk6po/AHAn6D6koCO0GhB9Sw9KUXjDwCzCKonCWBJdoMF1XNS0fgDwHyCuF9jgTiZACAfQfXct1ke2DB1zPgvReMPAHsRVE8SsCw0wpJo/AEgV0H1JAE8nC1zhdKfNDaRJAgAsCh1PTugELIUlD5rZBYpAMRRRxJAhy5TpdKeKBZdAQBi6Sr9fZ1JgZmpY9If40UAEJ/da1Pf39kuOBOXKP3J0RMAIJWe0t/n6eQ5F5R+jKgnAEBqlyvtvZ75AI7ZGE2ptCfElQIA1CX1I91LMR/Apb44EQCgTewebJP0Ut77mQ/gTOpx/1KUggDAg6D01V/mAzgRlHbcn3EgAPAl9R4BtANOlEp30C0uEgDAm67StgXXCrVaUtoD3hMAwKue0rYJzAeoSaG0B3pZAADv+krbNhRCUkFpS//2u5jxDwD+pV4ZQPuQWF9pD24QACAXQWknBbInTCJdpTuoFkz6A4D8FKKtaJSgtKX/ngAAueopXXvB0sDI+kp3MCnpAED+BkrXbgyEKLpKdxBLkckBQBOkfk4MuwQuWFDaAxgEAGgK2ykwVfvBUMCC9ZXu4PUEAGga65mnakcGwkJ0le6gLQsA0FQpHx/MqoA9CkpX+i9F2QYAmizlfIAjYoOgPekrXbZWCADQdIXStSs8K2CXUk7a6AkA0BaXK137UghzK5Xm4JQCALRNqucF0MbMaUlpDgzLNQCgnYLSPS+gJ8wkKM0BsWDDBgBor1RLA+lszqivNAdkIABA21lbQJvjQFdpDkQpsjEAQNqhgELYkjXMKQ5CRwAAjKUaCiiFTS0pzQFYFgAA6w2Upg3qCesEpen9MxEDALCZoDRDAewQuEFfaTIvZv0DALaSaiiAHQLXBKV5w0sBALC9gdK0SYWQ7M0OAgBge0Fp2qSBWq6rNG90TwAAzKanNG1ToRo9SvUqFb9nXq3GOUITnb5FzKpa+3h0LSoBwPg+Ys8KCIrr0Gqcr5rsV326SlOW7wm5Cho/FfKAxkncaWuf76axn0e1FpYUHNY4Ub1u7fNDAtB0dq3/juKX6e1+1lmNK1SDOisAKXr/fY0PInwLGpfCJo39Qfmes2FJQKVxUjD5N4kB0DyWABSKy5KNc9Y+tkJXacZXguCN9dov0vh53HZxpdqCM3YcWXs9l6+9viAAuQtKc4/qqSWC0mz60xM8sAa/q3HDmOK4ewobQ1wWCQGQs57i3ytasznQkuK/maVQp0Lj4zxQ2gY3h4TgcrH+F8iJNcyl4t8fekos9RyAoHGjEBRXVzVNqmgpu0Bs3N56uh2xzeUsqtUYrsbVq3GVgGYo5CvBtYZ7EW1BofgTAhs/F2BJ8bOo2AcJxxUa92ibMo5fV9j7tywqA8jfQL6urY4WJ8Vr66mhgtKUUYIQU6FxIkejHydKjZOBICAvQf6up6DFKaTof29j5wIsKf6btyzEYCfkJWJMP3XYnIGOgDx05e/6WbS+FP3v7qlhguj95yiI3r6HKEVVAP4N5Ou6eYcWzzpDse+HjasCLCn+we4Ji1KI3r7XuFLMFYA/Qf6ulaA4elL0v72nhgiK3/svRe9oEQrR8OcSpRgegB9d+bo+YpT/J6gCzKGr+Ae7I+xFVzT8uUYpzn/UbyBf10VPcfUk5f4akigV/waI3SnUvt35mhqlSARQD+uperseDiouqgAz6Cr+ge4I8ypEj7+pUYprAml15e8aSKErKfZriTGRMRk7EE040E1hWfFA6S9IIn0MxLwYpGETUz2d+5crnVJxX0upTHUV/0B3hFlYGekypb8QifpjWSQCiKeN5f9pXcV/PYUyNFDcN6UUZmEb+LCOv91RKvNSItyy5394O9dTKxX3NQ2UGcvAYh/ojrCdQpT7ifVRimoAFqsvX+f4stLrKv7rKpSRvuLfyLA5yv3ETmHnB09sxCJ4qy4WqkepuK/rSmUiKP5B7gibKcSyPmK2KMWOgtgbyv/HdRX/9WWRtPfV3IPsFb1+YrdBNQC71Zevc3lZ9YpdDekpA6XivgkdYZrNt4j9nhPNjlLMDcD87LzxdB4XqldPcV+f+42Buop/o8JxNsN/hSAWFEsCZlPI17lbqn4pdgfsyLGB4r74nmDsRIv9XhPtDJtsFARsry9f5+2yfOgp7uscyKmg+Ac5CIUo+RNxo1TazVSQHztHPJ2zF8qHFFWAQg71FfdFLwuU/ImUsSTgRIV8nadH5IttRRzz9abc6ngmKbKeoPZilj9RV7BKABv15escXZYvsTfCczcZsKu4L/gqtVdYjWuV/qIiiEmUYvgNx9n54On89FL+nzZQ3Nfsamvv2C+2UDuxxI/wEqVIAuCv/L8inwrFfc0DOREU/8bTRrbLFg/xITyFnY92XqK9Yo9vzxueq8OxK7d7nqi7T3vXU1w9tY9N9rPlWIy9whM7H+28XBLaylu53fMe+VcoLhfJeKm4PY6gdrGb6wpBOI8loW1SPOV13vDcSYo9Ob721Q+xHwaxrHZZUvoLiCB2G0tCm1D+n1/s96xQjfqK++LatBkJy/yIHGNZaAtvq5E68q9Q3PegtiGQ0xX3hV2r9lhW+ouHIBYVy0LTBfk774LyMFC892BPewLsZRJg7AkI7nY7imRZ430UgFx1RRLQdN5WfwxXo1IerlY81vh3VQO3WU1G7Ka5QhANiWWhqSj/717syYADJRbEjWSvGPMnmhjLQtME+TvPgvISezLgrjrMux0CKBRX7PWTdVuSs60cgQXpitUBTVPIl6HyKf9PxF6x0FVCA8XLZEo1m90cVwii4bEkNMVAvs6tjvJUKt57MlAiQXEPbk/NtaT0FwtB1BVLQu6C/J1XQXnqKe77kmTeXFeK+iKCmin2pkkE4TE6Qs668nU+5bw8PPbS+STDygMp2gsYqJlsQyMe7EO0Mey8b9OGXk0zkK/zKfe5UzHfz4EiC1K0P96io+YJ4pG+RLujFI8SzlGQv3MpKG+WwMR8f+YaBph3FUChuL6oZrGDMRA3P7Rb0Pg64OmWeSnkyyHlN/t/o77immvDpnkTgJiPghwq/4O7ka39DAIQNN77AvnoyJeYO+qlclTjti6WqMcs5ji2t5Ntr5ZUT4mMIDzHkpCD2BPWdhNNmUsScxgg2i66hRTtj7YIao5C6S8OgsglCsG7rnydM6WaI3ZyVWhG8wwBdBXPUM0p/wexHSqwHXuEaRA8izncuxtNKP9PxB4GiPLgJsvAYmUsHTWHt4dmEITHGAheUf6PL+YwQKkFO6h4f6xFUDMsKf2FQRC5BpMCffK2aVmp5omdZIVZ/ohZhwAKxTNUM8r/liT1BGBW1gsqBG+ilJD3YKjmcTEMMGsCEHM8qAljO0HjcU0A81kW+wN44238v6lPh43Z9i30GNZeqnCur/RlMYJoSiwLXlD+Tyco3vs203LAWSoAheKplH/5vyseeALsRVf+ys5tRfk/nUrx2j9r/HecODlLAhDzhBgqb0FsbAIswrIYCvDgAvnS1PL/RMxhgB3b7v3aWcwTIveD2xPrmRfqrLPO0m7ce++9o4j1O+644w4hKmv8LZl+p1CXQr7uZ5WaXQEwV63GJYpjx7b7UTt83y7KI4pnp9/vWSHWMi/ct7/9bZ199tma1wc+8AH92Z/92Y4/F0LQ9ddfr3kcPnxYL3zhC4UkXqnm3/S96svXcGZ/NX5HzWZtbKl41a8zNF5xsKmdKgCF4hkqb0xciuDUU0/V4x73OM3r0Y9+9Mw/O+9//7GPfayQjF1X52ubmxai8Vb+v0rNZ+e5PeWwUBx2TLccZthpDkCheHJe/melyiAAixY03h8AaRXydU+zhrFJ2/9uJ+brfOV239wpAYiZEQ6VpyA2/AFisjHRIKTUlS9t6P1PxHyt27bh2yUAMy0j2KVK47JHjnoCEJPdexhiS4vyf30qxRvysjZ8y/kF+3b4P8YyVJ4KseYfSKEQ2wSnUshfxaUt5f+JmK93y7Z8uwSgUDxD5YleCZAOe2yk4W3zn7Y1/maoeLY8vtslADFLQl9UfrpiXBJIqRAVtxS87f3fxueqDBXPeVt9o44hgEp5bv9LbwRIryd2CIzJ7vNBvrSxAlApXrs49xDAthMH9ug65acrev9AHYJYFhhTV75Y49/WPSBiVca3nNC/XQIQS47lHXr/QH1sWSBVgDi8zf5v82PVY66MKzb74r55fnhBcqsAdEXvH6iTNf5UARYvKG5nbzdynB+2KEPFs+k8gH3z/PACTLY9zAm9f6B+VAEWz+Ojfyu1l7WNMfcDOEHqIYDcGv+u6P0DHlAFWDxvKyz6Qqw2ctN5fZslAIXiya28Q+8f8CPWY1PbKIjyv0cxh8jDxi9slgDEPCmuVT66ovcPeGI9GPYFWIxCvgzV7vL/xFDxFBu/sFkCEBRPThkevX/An66wCJT/fRoqnhPm9u2b5YcWpFI+6zsL0fsHPCrEMwL2Ksjfe0j5f8zayEpxnFDdTzkEkNPyv64AeEV1bm8K+WIT3yphItZEwLDxCxsTgJg7AOayAiCIcUbAs0IsCdwLb/e3K4RpMXcEDNNf2JgABMWTywTArgB4x5LA3QnyVwG4SphWKZ51Q/z7N3wz5gqAXIYA6P1v4lGPetS2319ZWVHs37Gdpz71qXr5y1+uk08+WaeccsooHvOYx4w+P+mkk7Rv375RnH767juO9vct4nViIWxJYE+YVyFfKP+fKGa1/JzpTzbecW0f5hi7Q9nEhjPkn732Nu9FvSlr+P7yL/9SRVEcawAfeeSRTT8+/PDDo5/Z+HHy/WnWIJtJQ71//3699KUv1W5s1zDvJbEw99xzj6655hrdeuutuvHGG/Wd73xHt99+u77//e/rtttu07333ivU4pWKO2u6iQbylQRcKhK5zRxRnGGu/mr8zuSTjRWAoDhyGf/3tjWmG+eee65e8pKXyKu9NvLbecITnqBf+qVfOvb5dLLxwx/+UDfddJO++tWv6ktf+pJuvvlmXX/99XrwwQeF6Gwy4FCYlTUohXyh/L85azMLLd62Vf6VSHG5/AuK9/qzjtXGdeWzn/3sCra3WuUYffze97638rnPfW7l7W9/+8ozn/nMrI51hsFkwNl15evYlcJWrM2M8Z4fmf4l05MAY47/V/KvELAHkyrEM57xDL32ta/V3/zN34yGDP7zP/9Tb3zjG/XoRz9aWLiuMKsL5cvVwlYqxbFuJcC+Dd+IJYchgI6ABbKE4HGPe9xo+OBTn/qUbrnlFr3nPe/Z00REnMBbo+aVnXTehjj7wlZitpnHVgKkqgB4TwCCqAAgMlup8IEPfEBlWeqP//iP9RM/8RPCnhViGGAWhXyplN/TYVOqFM+xlQDTCUBQHEflfwvgQkAiVgF4//vfr6985SujoQHsWVfYibfe/1DYTqV47WaY/GM6ATigOCj/A5v4yZ/8ydHQwMc//nE9+clPFnaNYYCdeXuP2P1vZ5XiCJN/pKgA3C3fgqgAoEZvfvOb9W//9m96znOeI+xKIYYBtmO9f0/vTyUqALOItXnepnMAguLwXgEoBNTMNkD6/Oc/P5ongF1hD4+tUf7PU6U4jiWD+6a+ECtD9P4MAMqHcCGEoMFgoKc//enC3EgAtnaBfKH8P5tKcRxr7ycJQMwVAN6HAAoBTjz/+c/XX//1Xwtz89bIeVEo7kPe5lWJCsCsYlbPg/3PdAUglkp+FWLsEM786q/+qn73d39XmIvHbW496MqXoTCrmKvnRpP+J88CCIqnkl+FMBN7EI7tcb8d2/jGHuxj49i2AU7M/fmb7n3ve99oYqDtGYCZFaKB2chbZYS9/2dXKZ51TwXsKc6+w97H/weqZw/sRsfTnva0lU6ns3LNNdeseGX79k/27vfq0ksvzeq4O4iBMK2Qr+NzRJhXqTjHYvR8nkkXLdZjgIcaP7LTqxUhqre97W26/PLLR5WBmD7zmc/o05/+tB566CE98MAD+vGPfzwKexyxfc2ezmd78VucccYZOuuss0bx+Mc/Xmeeeaae/exn61nPepZWkxc3lYujR4+Onitw3333CTOxkuk58r/xWCp9+drjpK+pR9FiJgPFqVT3NXUs7JfEyDKW5VeherLg1sVv/dZvrcTW6/Xm/rvsKYcWk89POeWUlXPPPXfl9a9//crf//3fr9x55521Vgnsd1988cWuj63DKISJUr6ODSuu5tdXnGMxsP947EmAh+VXzJUPmPKJT3xCw+FQ3qy2saOYsMrBTTfdpM9+9rN6y1veMtqr3x7k88///M9abYyVmlUi3vSmNzGXYj5c12OFfM3+Nzz9b35RtwPeN/1JBJ5LcRcIyfT7/XWNbQ5s2MASF9uv30rxtmVv6tfwspe9jH0B5lMIxtu+CDT+u1MpjnX7AMSqAJTyqxCSufnmm5Wz22+/XZ1OR6973ev0ve99T6nYHAXbIAgzI7Ef81Zuv1LYjVid6GMJQFA8XjcBCmL9f1L33nuvmuBf//Vf9epXv1p33XWXUrDy/8tf/nJhZnZdB7WbDYME+UIFYHcqxRMsAWjjJkCME2LXvv3tb6vb7SqV5z3vecwDmE+hduvKF2v8WZmxO5XiOT12AuD1oJMAYE8+97nP6R//8R+Vgi1PxFzafn17Gwah/L97MdvQ1iYA5wnYoz/8wz/U//3f/yk2W42AuQS1V5C/BOiLwm7FbEOjDgFU8isI2CPbHtk2IIrtKU95SnYrKGrW5gTf46N/K2EvKkUScxKg5zEfhgCwEF/4wheiN86PfexjhbkEtXeSb0e+9AWvwj7Fw/g/Gu9rX/uaYqP3vytB7RNE+b+JKkUSexmgR0HAgnz3u99VbD/60Y9YBTC/Nib6hXwZivL/IsTqTB+IWQGo5BMVACyMPXDo/vvvV0w/+MEPhLkFtQ/l/2aKtp+OJQAH1C5BwILs379/9ITBmGznQYYB5tbG+1ohXyj/+3ZGzAqA1wcBte3GgIgOHDigk046STEdOnRImFtQuxTyxU7aSliESnGcFjMB8IotgLEwtklPzPF56/l/9atfFeYW1C7eyv9XCO7F3gjIoyBgQYqiUEwPPfSQrr/+emFubbqvBfmrAFwleNe6jYBOFxUALMjTnvY0vfWtb1VMX/7yl3X4sNfRNNfadK0X8oXy/2JViqRtQwA0/liYiy++WGeddZZi+tjHPsYEwN1ry/XurfzPk/8y0bYEIAhYAHtE75/8yZ8oJttq+N///d+FXQtqPktyCvlC+T8TbdwICNiT173udaMtgGMv//urv/or/fCHPxR2Laj5vO39X2k8BAD/Tm/bRkBBwC6dcsop+vCHP6yrr75aT3jCExTTDTfcoOXlZQE7uFC+UP5fvFg7AZ6+X+3CHADsys/93M/pox/9qF760pcqtkceeURve9vbdPfd0TYAa4umX+/2+rxVAPrCokV7rg4JALCNV73qVXrnO9+pV77ylcmeyvfud79b//Vf/yXsWdOv90K+VKL8n5W2JQDAls4444zRuv5zzz131OBbr//xj3980gfx/Pmf/7k+9KEPCZiBt97/UMgKFQA0gi3He9GLXjTaOMfi4YcfHn193759Ovnkk0e9d2vMn/jEJ47i1FNPHX1ujf5P/dRPjWb1P/vZzx79f+p48t4DDzygD37wg1paWhIWpunbfnsb/2f3vwytRIpC/vQV7/US28T555+/sjq2vZKC/Z7VBGAUk99pHycx/XOp/qbt3HPPPSvdbjer45lJLKu5rPfv6b0uhVgKRTpuDAGgcawHv7EXv1mvvo6e/kb//d//rd/7vd/TN7/5TQFzoPyPPWvjw4CA2tn6/t/8zd/UL/7iL9L4YzcukC+U/zNEBQCogc1B+P3f/309/elPH834v+aaa9jyF7Mq5GtPk0pUALIUMwE4TQA2ZZMSf/7nf34U1vB/4xvf0Mc//nF96lOf0u233y5gG135MhSyZEMAsTYZOEMAdmRzEV7ykpfoIx/5iG666abRMsAzzzxTwBa8lf/Z+z+uoEhiJgAA5mRLFN/1rnfplltuGS0J9DBREa4U8lX+t/aD7X/zVDEJEHDInjvQ6/VGQwPPfe5zBazpyhd6/xlrWwJQCcjIwYMHR6sEXvva1wpza+LDFCj/Y2FiJgBBAPbMdjL8l3/5F733ve8V5tK04c1C/u6rlP/jC4rjqCUAlQC4dtJJJ+l973uf3v72twut5W3zHxr/vB1lCADIhD3X4G//9m9HDyrCTCo1i7e9/68Usmb7AMQqkx0QkNgjjzxy7IFA0w8Gsq9P7N+/fzTJztbiW6Nqpjfh8T7z/pOf/KRe8IIXjHYTRGscFOX/tgqKxBKAJk6U2UolNJKtob/88suPJQDW6G+VAFg5ffoJgfYkQQt7MuBpp52mJz3pSXrxi1+sF77whTr77LNH/x9PSYH9rR/72Mf0a7/2a8K2KjVHV75Y488S8rxVMXcC9LgRUCU00tGjR1VV1Tz/l2M96BtuuOGE71mDb1WBZz3rWXre856nV7/61XrDG96gAwd8FLZe85rX6BWveMXoYUJoBW+z/yn/pxPtphNzEiBbASNbkyGBm2++WZ/73Of0B3/wB6P1+C972ctG6/MPHTpU6979j3vc4/Tud79b2FalZggaDwF48kUhd4fbtgywErBLP/7xj/W1r31Nl1566SgRuOiii/T1r39ddXn9618/Gg7Alio1g8dH/1ZCKqcrkjYuA6wE7JHNLbC1+S996Ut18cUX66677lId3vKWtwibatL4dEe+9IWUYiUAVRs3AmLiChbq7/7u73TBBReoLEulZvMAeF7Apg6pGYIo/7ddUBxHYlcAopUu9uA6AQv27W9/e7Q+/4477lBKP/MzPzN6gBBO0JTVTYV8GYoqakox29C7Yz8N0GMCQAUAURw+fFgXXnih7rnnHqXylKc8ZbRKASeo1AyU/9stZht6NHYCEORPU0qDcOgrX/mKlpeXlYqV/88991zhBJXyF+SvAkD5P62geKI/CyDIHxIARGXLBP/3f/9XKdhSRFYCbKoJ13khX+w9rYSUYlYAjk0CjFUFYAgArXPkyBFdccUVSsEqALZ7IU7QhATAW/k/zUmNaUFxjNrB2AlAkD+VSAIQ2ZVXptsozbYzZiXAOkeV/zUe5K8CcJWQWrQlgPY/+6Y/icBr14RhAET1rW99S3feeadSOPXUU4V1KP8vHuX/egTFsa4CcFhxBPnEUkBEZcMAd9+dZiXa5ImGOKYJ17e38j9P/qtHrOcAjG5ObRwCMFQAEN3999+vFGyLYqxTKW9W9i3kC+X/esQaAhi1gbGHAIJ8IgFAdKnG5e+77z5hndyvb297/1finlmXWLtArhsCqBRPkD+VmAiIiPbv359sdv6PfvSjWp9M6NBQebtQvlD+r0dQPKN9y1MkAF6XAlYCIjn77LP19Kc/XSmk3HkwA7n3VO1+6a0C0BfqEBTPujkAleLx9iCLCXa0QjT2qN4Uk/Os559qtUEmcr+uC/lSifJ/XWJ2ntfNAYi5bjbIJ05qRGEN/5vf/OZkcwDsQUQ4ZqC8eev9D4W6xBz/XzcHYPLFGGItY9grZrUiil//9V/X+eefrxTuvfdeffe73xWOyX0JoLfxf3b/q895iqOa/GM6AYjVI/Y6BMA8ACzc0572NL3//e9P1vv/5je/yRyA4yrlfU1b79/TnKlKVADqFOtcOLbvz77NvrhgQX4xuxULY43+hz/8YZ1zzjlK5atf/SorAI4bKm+U/zEtVue5mvxj32ZfXDDLYoJ8Yh4AFuKUU05Rv9/Xm970JqViDf+Xv/xl4Zjch/UukC+U/+tzuiI/B8CkSABMkE/MA8Ce2Xj/ddddp9/+7d9WSrb+//Of/7xwTM7j/4V83ScrUQGoU8yh82Md3xRzAIzneQBDIbrHPOYxjXti3U//9E/rE5/4hL7+9a/r3HPPVWpf+tKXdPQo+1mtGSrv8f+ufBkKdYrZZh67aeyf+mK19o0YZYcgv2zdcCFEdfDgwVHJOvckwJb4/fIv/7Le+ta36ld+5Vf06Ec/WnVZXl5m/P+43Nf/eyv/Ux2tV1A8xzr7+zd8o1KczCPWcoZFGK7GkhDNq171qqQz4xfB/lZrXG1L3wMHDugXfuEXRq/jNa95jc4888zaX8uNN96oK6+8Ujgm5warkK9OknUEmSBdr1ht5rpK/8YEwMbQYiQAXocAzFDxKh+N87rXvU4vf/nLd/y5k046SWeccYZe8YpX6DnPec5oCCC2SaO8Xa94s5+ZfM327n/+85+vF7/4xXruc5+rn/3Znx1t5/vUpz5Vj33sY+WJ9f4feughYaRS3hN6u/KF3n/9YrWZ61b7bUwA7CKK8RzqyUqASj7ZbNdLhG1ZQ/mOd7xj1BOe5WdTeuMb36gXvvCFo0ZxOh5++OFjPfmTTz551JBbMnL66afrKU95ik499VQ98YlPHH3dvj/p+XuuVtxyyy366Ec/KhwzVN4o/2NaUOTHAE9sNgQQy3nymwDYCU8CMIOzzjrLZeP4ghe8YBSL4H2o4r3vfa/uv/9+4Zicl6sV8jdHivJ/vWJWzK+d/mTj00piltHS7Y4yv6F4PPCOHv/4x+uZz3ymUJ/Pfvaz+uQnPykcUynvCoC3zX9o/OsXMwFYNwSwMQGoFK8hLOQbm17s4FnPepae9KQnCfX4n//5H11yySV68MEHhWOGypu3vf+ZWVq/WBMArW1f18nf7HmlleLwvBLAMO61A5scx7KzethchosvvlhlWQrr5Jy4W08vyBcqAPWLVQE4ocK/WQIQazetIN8z7Ydi84ttveQlL2ncZj65+KM/+iN94QtfENaplPc125Uv1vgzFFqvmFvnn9C2b5YAxJwH4G2260a5byYSlQ0BIC1byfCe97xHH/rQh4QT9JQ3b/dDyv/1KxRPtfELmyUAQ8XzSvl2ubAp6/k/4xnPENK5++679Ru/8Rv64Ac/KGwq54Q9yN/+KHSA6pfkGQATKecAGO/zAHg2wBZsnbyts0ca11xzzWgTpU9/+tPCpqxcXSlfHh/9Wwl1i1kVGm78wmYJwAkzBRfI846AE5cKJ3jRi15U6773bXHXXXfpXe9612i3xeuvv17YUu7Vuhgbru1FX/Ag2QRAs2+LH441EdAmOHhPAobKe1vRKKz3zwqAeO677z79xV/8hV72spfpsssu473eXqW8K3VBlP9xIjsnkuwAOLF/mx+OlaEW8t/AWnkxh2pFMs973vNYARCBbev7mc98ZjTOf9tttwkz6SlvhXwZivK/BzHbnOFmX9w/zw8viPd5AMbKi7Y1sOdli8lYw3/22WcLi2Eb+Vx11VX6h3/4B/3Hf/yH7r33XmFmNkSZe2+V8j82E3NTqLmr+kdWYyVC5LKTSU9xXn92sZoArNxwww0rmN8jjzwy+njHHXes/NM//dPKG97whpUnPOEJWR1/Z7GsvAX5e0+D4EGpOMf3yFa/cLua7kDxSlX2XIBKvlnv/4igM888c7QNbYpH+uZoZerpgda7v/POO0eT+b71rW/py1/+8mj//qqqhIXI4d6xna58JTE2HHu+ULegeJ3jobZYgr9/m/+TlQwKxVHIf9nJSo22zWhHLWdLAK1cvVennHLK6PG79iheSybs4UIW9jje0047bbTKYC/zDFYiPsZ38t+2jXmOHj2qH/zgB/r+97+vI0eOjD7/zne+oxtvvHHU6N9666164IEHjj1aGAvTV/5j1d7uJzwDxYdC8Ww5ZLbd3bLQuAoQQ381fkf+BeUzZOHepHGebhQnX9u/f7+e/OQnj3rMIQTNy9bLX3311Tr55JN10kknjWLy37aPk39b8vGnf/qnmoc19jY73zbmsfF625d/u9eEaHLv/Qf5u5/k/p42RV/xkkPr/Q81JyuBxxpzyqm0bknQCpEmyrJc2Y1er3fsv2FzFraK1eRiZV72N+X0HjY0lpW/rny9p9cKXpSKd5y3nMy+b+u/J+qGQDEfeLBobAyUGeuNbxXIVhOuw4584cl/PsR8KqS14Vs+4Gm7BMDEXG7jbSvMrQzFOBlQp77yL1Nbp6eQL1cJHhSKZ9s2fKcEYKh4Yq55XLSeANSlCb1/bx2eSux46kXMtnCw3TfrTABibnu4aNVqfEQAUuurGZPUvHV4KP/7USiePVUAYs8DyGm73Z62GUsBEEUTev92r/NWAegLHhSKZ9vxf7NTAmCYBzBmbyRVACAda/wr5a+QL5Uo/3vRVTw7tt2zJAAxJ4rkNA/A2DMCKgGIrVL+j/yd8NbRGQpeXKB4dmy7Z0kAdiwj7EFQXvtQ2/vwTgGIrafmDLl56+iwqsmHoLjt33CnH5glAYg5D8DkNAxgLKsaCkAsdr9pSiNl9zdPk50rcf/yImbbN5zlh2ZJAEzMGaO5DQOYHLYxBnL1/9QclP+xlZht30xt9qwJQMx5AIXyWQ44UYkdAoEYmjLxbyLmGO9uUP73ISju5NDhLD80awJQKe5F2VV+mBAILFalZm26VcjXHKdKVAC8KBRPpRmH7WdNAAzDAOvZ3AiGAoDFadr11JUvQ8GLmM+FGM76g/MkAAwDnGgo9gYAFqGv5jVQ3sr/7P3vQ1DcCsDMwzzzJAAxlwOarvLUE0MBwF5Uat7y2kK+yv9272b7Xx8KxWPHeTjrD8+TAMReDpjjMIBhKADYG7t+mrbNdle+0Pv3I2b5f66de+dJAEzMGaSF8hwGMEMxFADshs36H6p5KP9jM0FxKwBXzvPD8yYAsU+irvL1DrG/NjCPSs181HYhfzucUv73oVBcUSsAc40v7EKuwwATtoFJ00qZQAx2nbxSzeRt8x8afz9iz/6v5vh57df87GQqFEeh8TBAro1opfFkpmVhV77xjW/o9ttv17xuvfXWmX7uwQcf1Fe+8hXN47bbbhMWzipmlZrJW0dmrrIwogmKWwHoKwFroFciRk/5s02CVgiC2DSa8pS/zRyUv/c717lVTWNJb8zjHJTIQIr2Iko1w7Wq52InCM9Rqtm8Jf9M/vPDzv1Yx3mgXZh3DsBEzDGloPgTJVKw+QCVAExUau64/8QF8oXyvw+F4vbQ+0oo9jBAU0qEHsuBBFFX2PXQZEH+3vMgeNBXw47zQPFezBE1Z9wq9rgPQeQQdh00nbdrfSB4YG2ZtWnujvNuhwBMzGEAe8O6agarZvDoYLSZnf9Nnvg30ZEvfcEDWxYas0PbVw3cZjVO9VVPL4Ag6oy+2iHI33sfBA9iTwivrVp+peK+sELNYQeJlQFEm8LO97YsQevK13s/EDyIPQ9sWXuwlyEAE3v/e287au3FZOezSkDzVWrXzpgd+dIXPIg996X2ZZ4xhwGaNBlwIijuelCCqDtKtav8HOTvGAShbkFx28dSe7TXCoCJWQVo0mTAiUpUAtBcldp3fhfyxR5KVgl1KxS3AzuUA7HHOK5VMwVRCSCaFaXa2fMcyNdxaMOSyxzY9RDzOAc5MVDcF1qomYJIAohmRKl2Nv5B/o5FEOpWKO4xHmgBFjEEYGI/bnJJzVSJ4QDkr1J7z+NCvlD+9+ESxdWXI7H3BLBo8jaiQVQCiDyjVLt7nAP5Oh49oW5BcY/xwibHL6oCYEt9rlBcXTVXJSoByE+ldp+3dhMu5AtP/6tfT3HZMXa3vLZQJlmPY0FUAog8ohRjzV35OyaoV1D84xy0IIuqAJih4i5LsMa/6bNbK417VIcE+GXnJxUr6UL5EnsuFnbWUVxDOb7uuoqb+bShCmDsNcbeZpkgdhN2XrZle9/txH4k+m6i6Y9bzkGpuMe4I8dSTAbsqT16Sn8TIYitog1P9JuVbVPu6diUQt264hhHb7SOqF16Sn8zIYiNweYy6/Xl6/gsC3UrxTFOUhrrqF0KMTmQqCcs4S6EjWJXOueNQqhTV/GPcVAmYo9fl2qfIJIAIm2UYqb/Zij/YyM7BjGP8bIyUij+Sd9R+1h1xcZhVwgicvTFZL+t9OXrWC0Ldeoq/jHOboLnQHHfkFLtZeOxKwQRIay0zXj/9kr5OmaFUKfY58NAGSoU/8TvqL2CGBIgFhulWEq2k0L+jhnq01X8Y9xRpuzk5OSPhyEBYlFh5xEl/5315eu4LQt1KhX3+JbKWIpSdUfoimoAsbuwkr9NasNsSvk6ft52I2yTruIf344ylmJjoFL0XEyQv94J4TvY1W8+hXwdv7btieJNqbjHt1QD9BT/QugJE11RDSC2D3r9u9OXr+O4LNSlq/jHt6MGSFEFaMszAmYVRDWA2DwY69+9Ur6OJeX/egSl6f0HNURP8S+GnrCRzei2E2mFaH1cK5aL7UUhf8cU9VhS/GPbU4NQBaiXTcYslf4GRdQfrOtfDG+rba4S6hAU/9iWauAOnD3Ff+OWha0EMSzQtqDcvzilfB3bjlCHvuIf254aKEUVwKIQthNEItD0GIgNfRbJ3ktvx5jELr2g+Me1VIOfv9FT/DdwIMyiUPztmom0MRAJcAyU/2Hs+op9bHtqMKoA/hQiEcg9BuKcj8kmUHo63h0hta7iH9dSLXj6Zk9p3khKZPMpRCKQWwxEwx9bkL/jHoTUSsU/rj21QKoqQE/YDRvv7CvtDY2YLwai4U/F25M3B0JqS4p/XEu1KLHrKf4baklGEHYraJwI2Im5QtQedj73xDmdGuX/dgviuC5cqirAQFiErvzdCNsSg9W4RAxp1SHI3/kQhJT6in9MS7VQV2kumEJYlMnwgJ2wK0S0sOTYZp4XQp268nVeDISUukpzXDtqqRS9ylL0nmLoavw0uRViYTHQ+CE9nK8+2PHwdH50hJRKxT+mpVqsUJoLpyfEEjROBgZKezNsQhwRJX6vgvydL0FIZUlpjmlHLTcQF09TWCNmPdi+GCbYKqzRX9Y4aaLR96srX+fNtUIqQWmO6UA1e5TqVyjNGzFcjVcKKRVrcYHaPZ49XI0vrn0cCjmwORjnyY+PiB0AUymVpsN4zmpUQrKtNnkqWn2st1toPBxjCV+KVSB1xKSs31t7vfTygXzYcFyK+8SyHPBQATB2kywV/2Z5dDXOF1mXFwen4ry1jzk1mHY+HVqN69Y+TgJAfoLGQy2x70GVxtXoSjXbLx/sRmolriXFZQfWMi+GAnzYrMG0YzRJCM5Z+zj5Wh2O6nhDf1jjRPXw2ueVADRFT2k6IFfIyb3DSwVgItXYyzs1HnZAXuziDFMfw9rXD6x9DBt+dquLudrk34enPj+64SOAZusqTVm+0rhjg00USjdOGwQAaLugdKuWOsK2BkpzIAYCALRdqjZnWdhRULoZ4qwKAID2SjXr3yIIM+kpzQFhKAAA2ikoXWezJ8ylVJoDww5bANA+qdqYUphboTQHx+IyAQDaYknp2pe6ljBnL9UOgRaFAABNVyhdu7Is7Jqt4041RlOKbVsBoMmC0pb+g7AnFyldtnalAABN1Ve69qQjLMRA6Q4aSwMBoHmWlK4dWRYWJijt0+OYtAEAzRGUrv0oRel/4axnnvIAMh8AAPIXlG7c36IjRDFQuoM4EAAgdza3K1W7sSxEE5R2KGBJAIBc2T08VXtRitJ/dClXBVgUAgDkJnVb0RGSSFnS4XkBAJCXoLTj/stCMjZBL+XBvVZMCgSAHKRuH+x3BSGpQukOMBkeAOShr7RtQyHUIuWzAiyWBADwyu7RKduEnlArK8+nPOAdAQC8ST3prxRqF5R2aaD9LnYKBAA/gtK3A0FwIeUugZPMLwgAULegtJP+LHhmjDOp5wOwMgAA6pV6xr/FsuBOHScCjw8GgPqk3BPGohQdP7eC0o4DWVwmAEBqS0p7r2fcPwOp5wNYLAkAkIrdc1Pf5xn3z0Tq+QCcHACQxiVKf3+/XMiGjdGk3h/AoiMAQCx2j019Xy+F7ASlnw/AHgEAEIfdW1Pf00sx7p+tQmlPFpIAAFi8oPSNv0UhZK2OSYGlyBoBYBGC0i/xtugJjdAXSQAA5CaonsafSX8NUtekwFIkAQCwG0H1NP6l0DhB9Z1MQQCAWQVxv8aC1TGLlJMKAGYXVE/jz05/LdBV+hOLJAAAdhZUT+NvcZHQCj2RBACAJ0H1Nf49oVXq2C6YJAAAThRUX+PPjP+WGogkAADqFFRf488j3VusruWBJAEAUG/jb7/3dKHVguo9AYMAoH1sVRb3XtQuqL4TkWcHAGibupZk0/hjU3WekPZ7OwKA5rN7XZ33Wjpc2FShek7KSbxDANBcl6jeeyyNP7bVVb0n6JIAoHns3lbnvbUrYAZ1PEKYJABAU12meu+pVFcxl57qPWFtfSpLVADkzO5hdi+r817aE7ALPdV74pZitiqAPAXVt88KjT8WoieSAACYR51r/Gn8sVA91Xsi29IVnlQFIAcd1bfMj8YfUfRU7wltsSQA8MvuUXXfJ3sCIuip/pN7WUwOBOCL3ZPs3lT3/bEnIKKe6j/JSzEvAIAPQfVP9qPxRzI9+UgCmBcAoE6F6h/vp/FHcj3Vf9JbLAkA0rN7j4d7YE9ADXrycQHYRhtBABCfjfcP5OPe1xNQo7q3DZ5EKZIAAHF5WN8/Cbb3hQtd+bggLJYEAItX95P8pqMrwBHLjD1MhrFYFtUAAIvhYT//Sdg9thDgkKfymP0dhQBg9wr5uqcdFOBYkJ8LxmJJADC/uh/hu7HxDwIyEOQrCeDiATCrIB8b+0zC/pYgICOexs0sbOyMWbMAtmMT/bzMZbIYiK3PkbHL5edimlxQQQBwXJCftf2TuFxAA/Tk68IqNX5kJwB46/Vb9AQ0iO3b7+0iWxbVAKCtgvz1+u0e2RXQQEG+JgdOLjjmBgDt4rHXX4plfmi4IH9JwOTiCwLQZEH+ev0WzPRHq3ibHDiJJQFoGptJb9e2x3tOX8z0Rwv15POCLMUkQaApCvmsOlow/IhWK+T34lwWZTkgV0E+y/0W7OkPrAnymwRYLAlALiblfm+T/CbBeD+wCa/zAixKMSwAeFfId2fC7nGM9wNbsDExr5m7xUBk74A3hfyW+y1YbgzMKMh3Fm+xLBIBoG7Wm+7L972iFPcKYC45XNgWS+LiBlLzPs4/CUr+wB54HxKYZPgdAYgtl4afkj+wIEH+hwRIBIC4usrjPsAsfyCCnvxf/CQCwGJ1lUfDb8EjfIGICuVzM7C/syMAu9FVXtd6IQDRBeUxQZBEAJhfV/k0/BZXiol+QHJd5XWjsL+1IwAb5TK5bzrsb71IAGoTlFc1YJIILImJQkCODb/FQFy/gBtd5VUNmMSyuJGgfQ5qPGEut4af5X2AU0H5VQMmYeOIhYBmK+R7y97tYiCSdcC9rvKsBqzo+DyBIKAZrMx/icbr43O4BjcGY/1AZoLyrQZMbjrLGpdKgRwVyrPMPx1s5QtkzBrQUnnddDaG9Zw64kYE/ya9/YHyusY2RimG5IDG6CmvG9BmMakKFAJ8KZR/b39yjfUEoHGC8h4WmI5S455WEFCPyRI+Oxe9Xy+zxEBcT0DjddWcm9bkxtURNy/E15QS/3SUoqoGtE5PzUoESAYQQxMbfQvK/UDLBTVnWIBkAIvS1EZ/EszuB3BMUHNvdpNkgDkD2E5Qsxv9yXVQCAA20VXzhgU2RilWE2DcAy407g3bOeH9vN1LXCvOdwAz6qr5N8VJDDTu+bHpUPMFHe/l575kb5aw19gRAOxCV+1JBFZ0vDrQEcMFTRA0PoftmLahwZ9u+HtinB/AHgU1c8XArAmBPaioIyoEObBjZD38ZbXzfKXhx8weJWB2QePeVEft7R0fXY1Dq/HFtY/Dta8hvckYvsV5Gjf+bW347Bz8iMbzGTgfMRMSAOxGEInAtErjZOC6tY+H1r6GxQkaN/AHNG7wD4pzz9DwY9dIALAXQSQCW5lUCiwpKHU8OeAmvb2wFtajP0f07LdCw489IwHAIgSNe2VLIhHYySQxsI/TSUGl9lQNgsYN+qQXf2Dq3zT026Phx8KQAGDRuiIR2IvphOCwxpO6Dk997aj83vhPX4uwFqdp3Is/beprQdiNSuNG/wrR8GNBSAAQS1fjoYFCiKHS+mSgWvt4eMPPaJvPNzNpxKeFqX8f2PBzYZOfweIMV+PStY8AkBUr7faV11Iqgqg7bOlpISAiKgBIJWi8PvkC0VsENsP4PpIiAUAdumJ4AJgYalwlu1o0/EiIBAB1ChpXBS4Us7/RLtbQ24S+q8T4PmpCAgAPrPG/SFQF0HxDjRt9ZvOjdiQA8CaIuQJolsnYvjX8hwQ4QQIAzy7S8coAkBNr9IcaN/xDAQ6RACAHDBEgF0NR4kcmSACQm6BxEkAyAC+GotFHhkgAkLMgkgHUYygafWSOBABNETROAi5c+8iyQizS5CFOk6V7NPrIHgkAmqrQeMMhVhNgtyqNN+eZzN6n0UejkACgDex5BJYI2ETCQsDmJr18a/C/KJbsoeFIANBGhcbJgCUFB4U2s0beGnt6+WgdEgC0nc0VKNaChKD5Jg3+cC1o8NFaJADAepYQWBJQ6HhCwITCPE1K+teJHj5wAhIAYGcHdTwpOE9UCbw6NBWM4QM7IAEAdqfQOBk4R8eTAioFaVgvvtL6xr4SvXtgLiQAwOJYEhDWPp439W/szsaG/vDax0oA9owEAIhvUh2YVAwOaJwcBFE1OKrjY/XWwJeioQeSIAEA6jWZdGgfLTE4Q+NE4fS1CMo3SZg07tVa3K3jDfzka5TtgZqQAAB5CDqeFEwnB+bA1M9MTH5Gm3xvJ5OGe1q1yfcOb/hepfWNPgDH/j+CmS9xTGJMagAAAABJRU5ErkJggg==;" vertex="1" parent="1">
          <mxGeometry x="662" y="-20" width="36" height="36" as="geometry" />
        </mxCell>
        <mxCell id="sWhWIhyuhKPl6AwqvS7Z-57" value="" style="shape=image;verticalLabelPosition=bottom;labelBackgroundColor=default;verticalAlign=top;aspect=fixed;imageAspect=0;image=data:image/png,iVBORw0KGgoAAAANSUhEUgAAAgAAAAIACAYAAAD0eNT6AAAACXBIWXMAAAsTAAALEwEAmpwYAAAAAXNSR0IArs4c6QAAAARnQU1BAACxjwv8YQUAAD8LSURBVHgB7d17rGxnXf/xD6eHlnJrC7SAYM9TuZRb6KmAeCF2IX+AILS/KEaiOCM0ATWxQCJiSNxTjCAqtGCi4Q/dU4IRidBWQlTQzBANEAr0NBTaJpS1jqW0tMVzSm3T0sv+7e/MnnNm77MvM3vP86zvs9b7lXzZZ1/o3jPr8nyf73NZjxKAHITVOH0twtTXzIG1j5PvT39Pm3xvFtXUv4+uxcbvHZ76/OiGqATAtUcJQJ0mDbqFNeTnrMZpU1+bt+H2ZJIITJKC61bjiMaJg31+SOsTCwAJkQAA8YXVOKjjDfyBtc9zbtwXZZIkWFhiUGqcKEwSBACRkAAAixN0vKE/uBb2tbY38nthSUClcVIw+TeJAbAAJADA/CZl+wtEQ1+HSXXAkoJJxWAoAHMhAQB2Zg38dGN/UPDo0FoMdbxiAGALJADAetaLtwb+otU4T8fH6pGfSaXgixonBUw6BKaQAKDtrHEv1mLSy0dzTScEFiQEaC0SALTNdA+fBh+ThOAqMY8ALUMCgDaYjOFfJEr62N5Q42TAkgLmEKDRSADQRNO9/At14q54wCwqjROCK0R1AA1EAoCmsEbfGvyO6OVj8WyuwFDHqwOVgMyRACBn1shbg28NfyEgneFq9EUygIyRACA3NPrwZiiSAWSIBAA5oNFHLoYaJwNXiyWGcI4EAJ4Vq3HJ2kfG9JGbvsaJwFUCHCIBgDeFxkv23iEafTRDpXFl4FIxRABHSADgASV+tMVQDBHACRIA1KnQ8aV79PbRJtb429AAVQHUhgQAqU2v1y8EYKhxVeAKAQmRACAVa/htQh9j+8DmKjFXAECDFKtx5WqsEAQxcyyLB1UhMioAiKVYjSVR5o+lmvp4VMcnlB3e5Gcmpn9uO2Gbzw9s+NrpaxGEGIZieACRkABgkSaz+a3MH4TdqKbi7tUo1z5OvjZrI16H6WTAPlqycMbax8nX6NXuTrUaPZEIYIFIALAIjO/PzhrvSuNHzR6e+vfk620QtD4hOG/q35w/26s0TgTYdhh7RgKAvaDh35o16NawX6dxL94+VuKmvZPppOCctY8kBieqdHxooBKwCyQA2A0a/vUqjRv7oca9+kPiprxoQeNEYJIcHBTDTKYSiQB2iQQA86DhX9+zH64FO7rVw87BQuNk4AK1u1JQiUQAQAR2U7UZ/UeU11KqRUSp8ZIsS3yYwOafHaOuxktP7dh5P79inK9LojoCYI/a2PDba13WuBEJQu6Cxseyr3YlBKXGK3IAYG5dtaPht9c40LiHH4SmswqBHWs75jmcnyQCAJIpVuNa5XWT281N8fK118okxnYr1I7qQCkSAQBbKNTsXtFA9PKxvaDmVwcG4hoAsMZ6wJcpr5vYvI0+vXzMK2g8DGbnUA7n+ryxLBIBoNWW1Lxx/oFo9LFYQc1MBkqN7wEAWqRQs8Y8B6LRRxpBzUsGSjE/AGi8oObcuEqN90Sn0UddgsbnoJ2LOVwzO8WyGBYAGmlJ+Zf77e+fzN4HPCk0Xk3QhCG1JQFohEL591AGosSPPNg52lX+S2lLsfMlkK3cZ/fT20furAHtK++qwLIYFgCycpHyvelYz4nePpokaFwVKJXXtTiJUkwSBNwLyneS30D09tF8hcYPKsrlupyOZVENAFyyXnNuvf5JmZ+xRrRN0Hh4IKfr1aIU1QDAjaD8ev3W8PdEmR8IynMp4bKoBgC1ym2sn4Yf2FpXeSUC9rd2BCApa0BzGkcsxY0CmFVXeSUCy6IaACRRKJ+bg/2dHQHYja7yutYLAYgml3X9djPoCMAidJVPIrAkAAsVlMfOYjbG3xGAGLrKIxGwvzEIwJ7lsLyPyX1AOl35TwTsnvAOAdiVHLbypeEH6hE0vvY83x8slsX9AZhLkP8MnwsbqF+Q/w2FSjEkAMzEe8l/IGb7At4E+d4QjCEBYBveS/6laPgB77ryXT28TADWCfI7y59xfiA/Pfm8n0w6E0EARr1qryX/gbhQgVwF+Z0fUIqKIlrOxvu5OAHE1JXfYYElAS1j5fRl+bwge6LcDzRRTz7vOcwLQGsE+RzvH4hyP9B0QT6rAaW4/6DhDsrfxcfyHKB97Jr3NveoFEkAGqojfxfcQFxwQFsF+ZskaPfIiwQ0yJL8XWT0+gGYrvxVJpcENIC3zX0GotcPYL0gfzsJMjkQ2bKZ9J4uKHr9AHbibW7AlWJVEjIT5Gum/7Wi1w9gNkG+hgRKcf9CJoJ8XTyXCwDm15Of+1gpkgA452mZn/0dhQBg9wr5uqcdFOBQIT9jZ4ybAViUID/LBe0eSxIAVzrycXFYMNEPQAw9+bnPdQQ44OWBPqXIjAHEFeRnSIDODmq1JB8XwkCU/AGkETQeZvRw71sSUAM78TxcAD0BQHo9+bgHLglIyE64uk96mwxTCADqY/v2lyIJQEvYiVb3yc7GPgC8CCIJQAvYCVb3Sd4X4/0AfLF7Ul8kAWgoO7HqPrl7AgC/eiIJQMPYCVXnCW3j/V0BgH82L6DuTdGWBCyAnUh1nsilWN8PIC9B9c8LWBKwB3YC1XkCM9kPQK6CSAKQKTtx6jxx2c8fQO7sHlb3pkFLAuZQ9/a+PMIXQJP0VO89lW2DMZOO6j1RewKA5ump3ntrR8A2bLJdnScoWSqAJrN7XJ332ELAJqzxr2vpCsv8ALRFV/Xea1lVhXWC6putygkJoG3q7HCVYnUV1gTV1/jb76XxB9BGQfXee4PQarZEhRMQAOoRVN892PZZYal1i9W1PrUUjT8AmKD6koCB0EqXicYfADwIqi8JuExolSXR+AOAJ0H1JQFLQivYk6po/AHAn6D6koCO0GhB9Sw9KUXjDwCzCKonCWBJdoMF1XNS0fgDwHyCuF9jgTiZACAfQfXct1ke2DB1zPgvReMPAHsRVE8SsCw0wpJo/AEgV0H1JAE8nC1zhdKfNDaRJAgAsCh1PTugELIUlD5rZBYpAMRRRxJAhy5TpdKeKBZdAQBi6Sr9fZ1JgZmpY9If40UAEJ/da1Pf39kuOBOXKP3J0RMAIJWe0t/n6eQ5F5R+jKgnAEBqlyvtvZ75AI7ZGE2ptCfElQIA1CX1I91LMR/Apb44EQCgTewebJP0Ut77mQ/gTOpx/1KUggDAg6D01V/mAzgRlHbcn3EgAPAl9R4BtANOlEp30C0uEgDAm67StgXXCrVaUtoD3hMAwKue0rYJzAeoSaG0B3pZAADv+krbNhRCUkFpS//2u5jxDwD+pV4ZQPuQWF9pD24QACAXQWknBbInTCJdpTuoFkz6A4D8FKKtaJSgtKX/ngAAueopXXvB0sDI+kp3MCnpAED+BkrXbgyEKLpKdxBLkckBQBOkfk4MuwQuWFDaAxgEAGgK2ykwVfvBUMCC9ZXu4PUEAGga65mnakcGwkJ0le6gLQsA0FQpHx/MqoA9CkpX+i9F2QYAmizlfIAjYoOgPekrXbZWCADQdIXStSs8K2CXUk7a6AkA0BaXK137UghzK5Xm4JQCALRNqucF0MbMaUlpDgzLNQCgnYLSPS+gJ8wkKM0BsWDDBgBor1RLA+lszqivNAdkIABA21lbQJvjQFdpDkQpsjEAQNqhgELYkjXMKQ5CRwAAjKUaCiiFTS0pzQFYFgAA6w2Upg3qCesEpen9MxEDALCZoDRDAewQuEFfaTIvZv0DALaSaiiAHQLXBKV5w0sBALC9gdK0SYWQ7M0OAgBge0Fp2qSBWq6rNG90TwAAzKanNG1ToRo9SvUqFb9nXq3GOUITnb5FzKpa+3h0LSoBwPg+Ys8KCIrr0Gqcr5rsV326SlOW7wm5Cho/FfKAxkncaWuf76axn0e1FpYUHNY4Ub1u7fNDAtB0dq3/juKX6e1+1lmNK1SDOisAKXr/fY0PInwLGpfCJo39Qfmes2FJQKVxUjD5N4kB0DyWABSKy5KNc9Y+tkJXacZXguCN9dov0vh53HZxpdqCM3YcWXs9l6+9viAAuQtKc4/qqSWC0mz60xM8sAa/q3HDmOK4ewobQ1wWCQGQs57i3ytasznQkuK/maVQp0Lj4zxQ2gY3h4TgcrH+F8iJNcyl4t8fekos9RyAoHGjEBRXVzVNqmgpu0Bs3N56uh2xzeUsqtUYrsbVq3GVgGYo5CvBtYZ7EW1BofgTAhs/F2BJ8bOo2AcJxxUa92ibMo5fV9j7tywqA8jfQL6urY4WJ8Vr66mhgtKUUYIQU6FxIkejHydKjZOBICAvQf6up6DFKaTof29j5wIsKf6btyzEYCfkJWJMP3XYnIGOgDx05e/6WbS+FP3v7qlhguj95yiI3r6HKEVVAP4N5Ou6eYcWzzpDse+HjasCLCn+we4Ji1KI3r7XuFLMFYA/Qf6ulaA4elL0v72nhgiK3/svRe9oEQrR8OcSpRgegB9d+bo+YpT/J6gCzKGr+Ae7I+xFVzT8uUYpzn/UbyBf10VPcfUk5f4akigV/waI3SnUvt35mhqlSARQD+uperseDiouqgAz6Cr+ge4I8ypEj7+pUYprAml15e8aSKErKfZriTGRMRk7EE040E1hWfFA6S9IIn0MxLwYpGETUz2d+5crnVJxX0upTHUV/0B3hFlYGekypb8QifpjWSQCiKeN5f9pXcV/PYUyNFDcN6UUZmEb+LCOv91RKvNSItyy5394O9dTKxX3NQ2UGcvAYh/ojrCdQpT7ifVRimoAFqsvX+f4stLrKv7rKpSRvuLfyLA5yv3ETmHnB09sxCJ4qy4WqkepuK/rSmUiKP5B7gibKcSyPmK2KMWOgtgbyv/HdRX/9WWRtPfV3IPsFb1+YrdBNQC71Zevc3lZ9YpdDekpA6XivgkdYZrNt4j9nhPNjlLMDcD87LzxdB4XqldPcV+f+42Buop/o8JxNsN/hSAWFEsCZlPI17lbqn4pdgfsyLGB4r74nmDsRIv9XhPtDJtsFARsry9f5+2yfOgp7uscyKmg+Ac5CIUo+RNxo1TazVSQHztHPJ2zF8qHFFWAQg71FfdFLwuU/ImUsSTgRIV8nadH5IttRRzz9abc6ngmKbKeoPZilj9RV7BKABv15escXZYvsTfCczcZsKu4L/gqtVdYjWuV/qIiiEmUYvgNx9n54On89FL+nzZQ3Nfsamvv2C+2UDuxxI/wEqVIAuCv/L8inwrFfc0DOREU/8bTRrbLFg/xITyFnY92XqK9Yo9vzxueq8OxK7d7nqi7T3vXU1w9tY9N9rPlWIy9whM7H+28XBLaylu53fMe+VcoLhfJeKm4PY6gdrGb6wpBOI8loW1SPOV13vDcSYo9Ob721Q+xHwaxrHZZUvoLiCB2G0tCm1D+n1/s96xQjfqK++LatBkJy/yIHGNZaAtvq5E68q9Q3PegtiGQ0xX3hV2r9lhW+ouHIBYVy0LTBfk774LyMFC892BPewLsZRJg7AkI7nY7imRZ430UgFx1RRLQdN5WfwxXo1IerlY81vh3VQO3WU1G7Ka5QhANiWWhqSj/717syYADJRbEjWSvGPMnmhjLQtME+TvPgvISezLgrjrMux0CKBRX7PWTdVuSs60cgQXpitUBTVPIl6HyKf9PxF6x0FVCA8XLZEo1m90cVwii4bEkNMVAvs6tjvJUKt57MlAiQXEPbk/NtaT0FwtB1BVLQu6C/J1XQXnqKe77kmTeXFeK+iKCmin2pkkE4TE6Qs668nU+5bw8PPbS+STDygMp2gsYqJlsQyMe7EO0Mey8b9OGXk0zkK/zKfe5UzHfz4EiC1K0P96io+YJ4pG+RLujFI8SzlGQv3MpKG+WwMR8f+YaBph3FUChuL6oZrGDMRA3P7Rb0Pg64OmWeSnkyyHlN/t/o77immvDpnkTgJiPghwq/4O7ka39DAIQNN77AvnoyJeYO+qlclTjti6WqMcs5ji2t5Ntr5ZUT4mMIDzHkpCD2BPWdhNNmUsScxgg2i66hRTtj7YIao5C6S8OgsglCsG7rnydM6WaI3ZyVWhG8wwBdBXPUM0p/wexHSqwHXuEaRA8izncuxtNKP9PxB4GiPLgJsvAYmUsHTWHt4dmEITHGAheUf6PL+YwQKkFO6h4f6xFUDMsKf2FQRC5BpMCffK2aVmp5omdZIVZ/ohZhwAKxTNUM8r/liT1BGBW1gsqBG+ilJD3YKjmcTEMMGsCEHM8qAljO0HjcU0A81kW+wN44238v6lPh43Z9i30GNZeqnCur/RlMYJoSiwLXlD+Tyco3vs203LAWSoAheKplH/5vyseeALsRVf+ys5tRfk/nUrx2j9r/HecODlLAhDzhBgqb0FsbAIswrIYCvDgAvnS1PL/RMxhgB3b7v3aWcwTIveD2xPrmRfqrLPO0m7ce++9o4j1O+644w4hKmv8LZl+p1CXQr7uZ5WaXQEwV63GJYpjx7b7UTt83y7KI4pnp9/vWSHWMi/ct7/9bZ199tma1wc+8AH92Z/92Y4/F0LQ9ddfr3kcPnxYL3zhC4UkXqnm3/S96svXcGZ/NX5HzWZtbKl41a8zNF5xsKmdKgCF4hkqb0xciuDUU0/V4x73OM3r0Y9+9Mw/O+9//7GPfayQjF1X52ubmxai8Vb+v0rNZ+e5PeWwUBx2TLccZthpDkCheHJe/melyiAAixY03h8AaRXydU+zhrFJ2/9uJ+brfOV239wpAYiZEQ6VpyA2/AFisjHRIKTUlS9t6P1PxHyt27bh2yUAMy0j2KVK47JHjnoCEJPdexhiS4vyf30qxRvysjZ8y/kF+3b4P8YyVJ4KseYfSKEQ2wSnUshfxaUt5f+JmK93y7Z8uwSgUDxD5YleCZAOe2yk4W3zn7Y1/maoeLY8vtslADFLQl9UfrpiXBJIqRAVtxS87f3fxueqDBXPeVt9o44hgEp5bv9LbwRIryd2CIzJ7vNBvrSxAlApXrs49xDAthMH9ug65acrev9AHYJYFhhTV75Y49/WPSBiVca3nNC/XQIQS47lHXr/QH1sWSBVgDi8zf5v82PVY66MKzb74r55fnhBcqsAdEXvH6iTNf5UARYvKG5nbzdynB+2KEPFs+k8gH3z/PACTLY9zAm9f6B+VAEWz+Ojfyu1l7WNMfcDOEHqIYDcGv+u6P0DHlAFWDxvKyz6Qqw2ctN5fZslAIXiya28Q+8f8CPWY1PbKIjyv0cxh8jDxi9slgDEPCmuVT66ovcPeGI9GPYFWIxCvgzV7vL/xFDxFBu/sFkCEBRPThkevX/An66wCJT/fRoqnhPm9u2b5YcWpFI+6zsL0fsHPCrEMwL2Ksjfe0j5f8zayEpxnFDdTzkEkNPyv64AeEV1bm8K+WIT3yphItZEwLDxCxsTgJg7AOayAiCIcUbAs0IsCdwLb/e3K4RpMXcEDNNf2JgABMWTywTArgB4x5LA3QnyVwG4SphWKZ51Q/z7N3wz5gqAXIYA6P1v4lGPetS2319ZWVHs37Gdpz71qXr5y1+uk08+WaeccsooHvOYx4w+P+mkk7Rv375RnH767juO9vct4nViIWxJYE+YVyFfKP+fKGa1/JzpTzbecW0f5hi7Q9nEhjPkn732Nu9FvSlr+P7yL/9SRVEcawAfeeSRTT8+/PDDo5/Z+HHy/WnWIJtJQ71//3699KUv1W5s1zDvJbEw99xzj6655hrdeuutuvHGG/Wd73xHt99+u77//e/rtttu07333ivU4pWKO2u6iQbylQRcKhK5zRxRnGGu/mr8zuSTjRWAoDhyGf/3tjWmG+eee65e8pKXyKu9NvLbecITnqBf+qVfOvb5dLLxwx/+UDfddJO++tWv6ktf+pJuvvlmXX/99XrwwQeF6Gwy4FCYlTUohXyh/L85azMLLd62Vf6VSHG5/AuK9/qzjtXGdeWzn/3sCra3WuUYffze97638rnPfW7l7W9/+8ozn/nMrI51hsFkwNl15evYlcJWrM2M8Z4fmf4l05MAY47/V/KvELAHkyrEM57xDL32ta/V3/zN34yGDP7zP/9Tb3zjG/XoRz9aWLiuMKsL5cvVwlYqxbFuJcC+Dd+IJYchgI6ABbKE4HGPe9xo+OBTn/qUbrnlFr3nPe/Z00REnMBbo+aVnXTehjj7wlZitpnHVgKkqgB4TwCCqAAgMlup8IEPfEBlWeqP//iP9RM/8RPCnhViGGAWhXyplN/TYVOqFM+xlQDTCUBQHEflfwvgQkAiVgF4//vfr6985SujoQHsWVfYibfe/1DYTqV47WaY/GM6ATigOCj/A5v4yZ/8ydHQwMc//nE9+clPFnaNYYCdeXuP2P1vZ5XiCJN/pKgA3C3fgqgAoEZvfvOb9W//9m96znOeI+xKIYYBtmO9f0/vTyUqALOItXnepnMAguLwXgEoBNTMNkD6/Oc/P5ongF1hD4+tUf7PU6U4jiWD+6a+ECtD9P4MAMqHcCGEoMFgoKc//enC3EgAtnaBfKH8P5tKcRxr7ycJQMwVAN6HAAoBTjz/+c/XX//1Xwtz89bIeVEo7kPe5lWJCsCsYlbPg/3PdAUglkp+FWLsEM786q/+qn73d39XmIvHbW496MqXoTCrmKvnRpP+J88CCIqnkl+FMBN7EI7tcb8d2/jGHuxj49i2AU7M/fmb7n3ve99oYqDtGYCZFaKB2chbZYS9/2dXKZ51TwXsKc6+w97H/weqZw/sRsfTnva0lU6ns3LNNdeseGX79k/27vfq0ksvzeq4O4iBMK2Qr+NzRJhXqTjHYvR8nkkXLdZjgIcaP7LTqxUhqre97W26/PLLR5WBmD7zmc/o05/+tB566CE98MAD+vGPfzwKexyxfc2ezmd78VucccYZOuuss0bx+Mc/Xmeeeaae/exn61nPepZWkxc3lYujR4+Onitw3333CTOxkuk58r/xWCp9+drjpK+pR9FiJgPFqVT3NXUs7JfEyDKW5VeherLg1sVv/dZvrcTW6/Xm/rvsKYcWk89POeWUlXPPPXfl9a9//crf//3fr9x55521Vgnsd1988cWuj63DKISJUr6ODSuu5tdXnGMxsP947EmAh+VXzJUPmPKJT3xCw+FQ3qy2saOYsMrBTTfdpM9+9rN6y1veMtqr3x7k88///M9abYyVmlUi3vSmNzGXYj5c12OFfM3+Nzz9b35RtwPeN/1JBJ5LcRcIyfT7/XWNbQ5s2MASF9uv30rxtmVv6tfwspe9jH0B5lMIxtu+CDT+u1MpjnX7AMSqAJTyqxCSufnmm5Wz22+/XZ1OR6973ev0ve99T6nYHAXbIAgzI7Ef81Zuv1LYjVid6GMJQFA8XjcBCmL9f1L33nuvmuBf//Vf9epXv1p33XWXUrDy/8tf/nJhZnZdB7WbDYME+UIFYHcqxRMsAWjjJkCME2LXvv3tb6vb7SqV5z3vecwDmE+hduvKF2v8WZmxO5XiOT12AuD1oJMAYE8+97nP6R//8R+Vgi1PxFzafn17Gwah/L97MdvQ1iYA5wnYoz/8wz/U//3f/yk2W42AuQS1V5C/BOiLwm7FbEOjDgFU8isI2CPbHtk2IIrtKU95SnYrKGrW5gTf46N/K2EvKkUScxKg5zEfhgCwEF/4wheiN86PfexjhbkEtXeSb0e+9AWvwj7Fw/g/Gu9rX/uaYqP3vytB7RNE+b+JKkUSexmgR0HAgnz3u99VbD/60Y9YBTC/Nib6hXwZivL/IsTqTB+IWQGo5BMVACyMPXDo/vvvV0w/+MEPhLkFtQ/l/2aKtp+OJQAH1C5BwILs379/9ITBmGznQYYB5tbG+1ohXyj/+3ZGzAqA1wcBte3GgIgOHDigk046STEdOnRImFtQuxTyxU7aSliESnGcFjMB8IotgLEwtklPzPF56/l/9atfFeYW1C7eyv9XCO7F3gjIoyBgQYqiUEwPPfSQrr/+emFubbqvBfmrAFwleNe6jYBOFxUALMjTnvY0vfWtb1VMX/7yl3X4sNfRNNfadK0X8oXy/2JViqRtQwA0/liYiy++WGeddZZi+tjHPsYEwN1ry/XurfzPk/8y0bYEIAhYAHtE75/8yZ8oJttq+N///d+FXQtqPktyCvlC+T8TbdwICNiT173udaMtgGMv//urv/or/fCHPxR2Laj5vO39X2k8BAD/Tm/bRkBBwC6dcsop+vCHP6yrr75aT3jCExTTDTfcoOXlZQE7uFC+UP5fvFg7AZ6+X+3CHADsys/93M/pox/9qF760pcqtkceeURve9vbdPfd0TYAa4umX+/2+rxVAPrCokV7rg4JALCNV73qVXrnO9+pV77ylcmeyvfud79b//Vf/yXsWdOv90K+VKL8n5W2JQDAls4444zRuv5zzz131OBbr//xj3980gfx/Pmf/7k+9KEPCZiBt97/UMgKFQA0gi3He9GLXjTaOMfi4YcfHn193759Ovnkk0e9d2vMn/jEJ47i1FNPHX1ujf5P/dRPjWb1P/vZzx79f+p48t4DDzygD37wg1paWhIWpunbfnsb/2f3vwytRIpC/vQV7/US28T555+/sjq2vZKC/Z7VBGAUk99pHycx/XOp/qbt3HPPPSvdbjer45lJLKu5rPfv6b0uhVgKRTpuDAGgcawHv7EXv1mvvo6e/kb//d//rd/7vd/TN7/5TQFzoPyPPWvjw4CA2tn6/t/8zd/UL/7iL9L4YzcukC+U/zNEBQCogc1B+P3f/309/elPH834v+aaa9jyF7Mq5GtPk0pUALIUMwE4TQA2ZZMSf/7nf34U1vB/4xvf0Mc//nF96lOf0u233y5gG135MhSyZEMAsTYZOEMAdmRzEV7ykpfoIx/5iG666abRMsAzzzxTwBa8lf/Z+z+uoEhiJgAA5mRLFN/1rnfplltuGS0J9DBREa4U8lX+t/aD7X/zVDEJEHDInjvQ6/VGQwPPfe5zBazpyhd6/xlrWwJQCcjIwYMHR6sEXvva1wpza+LDFCj/Y2FiJgBBAPbMdjL8l3/5F733ve8V5tK04c1C/u6rlP/jC4rjqCUAlQC4dtJJJ+l973uf3v72twut5W3zHxr/vB1lCADIhD3X4G//9m9HDyrCTCo1i7e9/68Usmb7AMQqkx0QkNgjjzxy7IFA0w8Gsq9P7N+/fzTJztbiW6Nqpjfh8T7z/pOf/KRe8IIXjHYTRGscFOX/tgqKxBKAJk6U2UolNJKtob/88suPJQDW6G+VAFg5ffoJgfYkQQt7MuBpp52mJz3pSXrxi1+sF77whTr77LNH/x9PSYH9rR/72Mf0a7/2a8K2KjVHV75Y488S8rxVMXcC9LgRUCU00tGjR1VV1Tz/l2M96BtuuOGE71mDb1WBZz3rWXre856nV7/61XrDG96gAwd8FLZe85rX6BWveMXoYUJoBW+z/yn/pxPtphNzEiBbASNbkyGBm2++WZ/73Of0B3/wB6P1+C972ctG6/MPHTpU6979j3vc4/Tud79b2FalZggaDwF48kUhd4fbtgywErBLP/7xj/W1r31Nl1566SgRuOiii/T1r39ddXn9618/Gg7Alio1g8dH/1ZCKqcrkjYuA6wE7JHNLbC1+S996Ut18cUX66677lId3vKWtwibatL4dEe+9IWUYiUAVRs3AmLiChbq7/7u73TBBReoLEulZvMAeF7Apg6pGYIo/7ddUBxHYlcAopUu9uA6AQv27W9/e7Q+/4477lBKP/MzPzN6gBBO0JTVTYV8GYoqakox29C7Yz8N0GMCQAUAURw+fFgXXnih7rnnHqXylKc8ZbRKASeo1AyU/9stZht6NHYCEORPU0qDcOgrX/mKlpeXlYqV/88991zhBJXyF+SvAkD5P62geKI/CyDIHxIARGXLBP/3f/9XKdhSRFYCbKoJ13khX+w9rYSUYlYAjk0CjFUFYAgArXPkyBFdccUVSsEqALZ7IU7QhATAW/k/zUmNaUFxjNrB2AlAkD+VSAIQ2ZVXptsozbYzZiXAOkeV/zUe5K8CcJWQWrQlgPY/+6Y/icBr14RhAET1rW99S3feeadSOPXUU4V1KP8vHuX/egTFsa4CcFhxBPnEUkBEZcMAd9+dZiXa5ImGOKYJ17e38j9P/qtHrOcAjG5ObRwCMFQAEN3999+vFGyLYqxTKW9W9i3kC+X/esQaAhi1gbGHAIJ8IgFAdKnG5e+77z5hndyvb297/1finlmXWLtArhsCqBRPkD+VmAiIiPbv359sdv6PfvSjWp9M6NBQebtQvlD+r0dQPKN9y1MkAF6XAlYCIjn77LP19Kc/XSmk3HkwA7n3VO1+6a0C0BfqEBTPujkAleLx9iCLCXa0QjT2qN4Uk/Os559qtUEmcr+uC/lSifJ/XWJ2ntfNAYi5bjbIJ05qRGEN/5vf/OZkcwDsQUQ4ZqC8eev9D4W6xBz/XzcHYPLFGGItY9grZrUiil//9V/X+eefrxTuvfdeffe73xWOyX0JoLfxf3b/q895iqOa/GM6AYjVI/Y6BMA8ACzc0572NL3//e9P1vv/5je/yRyA4yrlfU1b79/TnKlKVADqFOtcOLbvz77NvrhgQX4xuxULY43+hz/8YZ1zzjlK5atf/SorAI4bKm+U/zEtVue5mvxj32ZfXDDLYoJ8Yh4AFuKUU05Rv9/Xm970JqViDf+Xv/xl4Zjch/UukC+U/+tzuiI/B8CkSABMkE/MA8Ce2Xj/ddddp9/+7d9WSrb+//Of/7xwTM7j/4V83ScrUQGoU8yh82Md3xRzAIzneQBDIbrHPOYxjXti3U//9E/rE5/4hL7+9a/r3HPPVWpf+tKXdPQo+1mtGSrv8f+ufBkKdYrZZh67aeyf+mK19o0YZYcgv2zdcCFEdfDgwVHJOvckwJb4/fIv/7Le+ta36ld+5Vf06Ec/WnVZXl5m/P+43Nf/eyv/Ux2tV1A8xzr7+zd8o1KczCPWcoZFGK7GkhDNq171qqQz4xfB/lZrXG1L3wMHDugXfuEXRq/jNa95jc4888zaX8uNN96oK6+8Ujgm5warkK9OknUEmSBdr1ht5rpK/8YEwMbQYiQAXocAzFDxKh+N87rXvU4vf/nLd/y5k046SWeccYZe8YpX6DnPec5oCCC2SaO8Xa94s5+ZfM327n/+85+vF7/4xXruc5+rn/3Znx1t5/vUpz5Vj33sY+WJ9f4feughYaRS3hN6u/KF3n/9YrWZ61b7bUwA7CKK8RzqyUqASj7ZbNdLhG1ZQ/mOd7xj1BOe5WdTeuMb36gXvvCFo0ZxOh5++OFjPfmTTz551JBbMnL66afrKU95ik499VQ98YlPHH3dvj/p+XuuVtxyyy366Ec/KhwzVN4o/2NaUOTHAE9sNgQQy3nymwDYCU8CMIOzzjrLZeP4ghe8YBSL4H2o4r3vfa/uv/9+4Zicl6sV8jdHivJ/vWJWzK+d/mTj00piltHS7Y4yv6F4PPCOHv/4x+uZz3ymUJ/Pfvaz+uQnPykcUynvCoC3zX9o/OsXMwFYNwSwMQGoFK8hLOQbm17s4FnPepae9KQnCfX4n//5H11yySV68MEHhWOGypu3vf+ZWVq/WBMArW1f18nf7HmlleLwvBLAMO61A5scx7KzethchosvvlhlWQrr5Jy4W08vyBcqAPWLVQE4ocK/WQIQazetIN8z7Ydi84ttveQlL2ncZj65+KM/+iN94QtfENaplPc125Uv1vgzFFqvmFvnn9C2b5YAxJwH4G2260a5byYSlQ0BIC1byfCe97xHH/rQh4QT9JQ3b/dDyv/1KxRPtfELmyUAQ8XzSvl2ubAp6/k/4xnPENK5++679Ru/8Rv64Ac/KGwq54Q9yN/+KHSA6pfkGQATKecAGO/zAHg2wBZsnbyts0ca11xzzWgTpU9/+tPCpqxcXSlfHh/9Wwl1i1kVGm78wmYJwAkzBRfI846AE5cKJ3jRi15U6773bXHXXXfpXe9612i3xeuvv17YUu7Vuhgbru1FX/Ag2QRAs2+LH441EdAmOHhPAobKe1vRKKz3zwqAeO677z79xV/8hV72spfpsssu473eXqW8K3VBlP9xIjsnkuwAOLF/mx+OlaEW8t/AWnkxh2pFMs973vNYARCBbev7mc98ZjTOf9tttwkz6SlvhXwZivK/BzHbnOFmX9w/zw8viPd5AMbKi7Y1sOdli8lYw3/22WcLi2Eb+Vx11VX6h3/4B/3Hf/yH7r33XmFmNkSZe2+V8j82E3NTqLmr+kdWYyVC5LKTSU9xXn92sZoArNxwww0rmN8jjzwy+njHHXes/NM//dPKG97whpUnPOEJWR1/Z7GsvAX5e0+D4EGpOMf3yFa/cLua7kDxSlX2XIBKvlnv/4igM888c7QNbYpH+uZoZerpgda7v/POO0eT+b71rW/py1/+8mj//qqqhIXI4d6xna58JTE2HHu+ULegeJ3jobZYgr9/m/+TlQwKxVHIf9nJSo22zWhHLWdLAK1cvVennHLK6PG79iheSybs4UIW9jje0047bbTKYC/zDFYiPsZ38t+2jXmOHj2qH/zgB/r+97+vI0eOjD7/zne+oxtvvHHU6N9666164IEHjj1aGAvTV/5j1d7uJzwDxYdC8Ww5ZLbd3bLQuAoQQ381fkf+BeUzZOHepHGebhQnX9u/f7+e/OQnj3rMIQTNy9bLX3311Tr55JN10kknjWLy37aPk39b8vGnf/qnmoc19jY73zbmsfF625d/u9eEaHLv/Qf5u5/k/p42RV/xkkPr/Q81JyuBxxpzyqm0bknQCpEmyrJc2Y1er3fsv2FzFraK1eRiZV72N+X0HjY0lpW/rny9p9cKXpSKd5y3nMy+b+u/J+qGQDEfeLBobAyUGeuNbxXIVhOuw4584cl/PsR8KqS14Vs+4Gm7BMDEXG7jbSvMrQzFOBlQp77yL1Nbp6eQL1cJHhSKZ9s2fKcEYKh4Yq55XLSeANSlCb1/bx2eSux46kXMtnCw3TfrTABibnu4aNVqfEQAUuurGZPUvHV4KP/7USiePVUAYs8DyGm73Z62GUsBEEUTev92r/NWAegLHhSKZ9vxf7NTAmCYBzBmbyRVACAda/wr5a+QL5Uo/3vRVTw7tt2zJAAxJ4rkNA/A2DMCKgGIrVL+j/yd8NbRGQpeXKB4dmy7Z0kAdiwj7EFQXvtQ2/vwTgGIrafmDLl56+iwqsmHoLjt33CnH5glAYg5D8DkNAxgLKsaCkAsdr9pSiNl9zdPk50rcf/yImbbN5zlh2ZJAEzMGaO5DQOYHLYxBnL1/9QclP+xlZht30xt9qwJQMx5AIXyWQ44UYkdAoEYmjLxbyLmGO9uUP73ISju5NDhLD80awJQKe5F2VV+mBAILFalZm26VcjXHKdKVAC8KBRPpRmH7WdNAAzDAOvZ3AiGAoDFadr11JUvQ8GLmM+FGM76g/MkAAwDnGgo9gYAFqGv5jVQ3sr/7P3vQ1DcCsDMwzzzJAAxlwOarvLUE0MBwF5Uat7y2kK+yv9272b7Xx8KxWPHeTjrD8+TAMReDpjjMIBhKADYG7t+mrbNdle+0Pv3I2b5f66de+dJAEzMGaSF8hwGMEMxFADshs36H6p5KP9jM0FxKwBXzvPD8yYAsU+irvL1DrG/NjCPSs181HYhfzucUv73oVBcUSsAc40v7EKuwwATtoFJ00qZQAx2nbxSzeRt8x8afz9iz/6v5vh57df87GQqFEeh8TBAro1opfFkpmVhV77xjW/o9ttv17xuvfXWmX7uwQcf1Fe+8hXN47bbbhMWzipmlZrJW0dmrrIwogmKWwHoKwFroFciRk/5s02CVgiC2DSa8pS/zRyUv/c717lVTWNJb8zjHJTIQIr2Iko1w7Wq52InCM9Rqtm8Jf9M/vPDzv1Yx3mgXZh3DsBEzDGloPgTJVKw+QCVAExUau64/8QF8oXyvw+F4vbQ+0oo9jBAU0qEHsuBBFFX2PXQZEH+3vMgeNBXw47zQPFezBE1Z9wq9rgPQeQQdh00nbdrfSB4YG2ZtWnujvNuhwBMzGEAe8O6agarZvDoYLSZnf9Nnvg30ZEvfcEDWxYas0PbVw3cZjVO9VVPL4Ag6oy+2iHI33sfBA9iTwivrVp+peK+sELNYQeJlQFEm8LO97YsQevK13s/EDyIPQ9sWXuwlyEAE3v/e287au3FZOezSkDzVWrXzpgd+dIXPIg996X2ZZ4xhwGaNBlwIijuelCCqDtKtav8HOTvGAShbkFx28dSe7TXCoCJWQVo0mTAiUpUAtBcldp3fhfyxR5KVgl1KxS3AzuUA7HHOK5VMwVRCSCaFaXa2fMcyNdxaMOSyxzY9RDzOAc5MVDcF1qomYJIAohmRKl2Nv5B/o5FEOpWKO4xHmgBFjEEYGI/bnJJzVSJ4QDkr1J7z+NCvlD+9+ESxdWXI7H3BLBo8jaiQVQCiDyjVLt7nAP5Oh49oW5BcY/xwibHL6oCYEt9rlBcXTVXJSoByE+ldp+3dhMu5AtP/6tfT3HZMXa3vLZQJlmPY0FUAog8ohRjzV35OyaoV1D84xy0IIuqAJih4i5LsMa/6bNbK417VIcE+GXnJxUr6UL5EnsuFnbWUVxDOb7uuoqb+bShCmDsNcbeZpkgdhN2XrZle9/txH4k+m6i6Y9bzkGpuMe4I8dSTAbsqT16Sn8TIYitog1P9JuVbVPu6diUQt264hhHb7SOqF16Sn8zIYiNweYy6/Xl6/gsC3UrxTFOUhrrqF0KMTmQqCcs4S6EjWJXOueNQqhTV/GPcVAmYo9fl2qfIJIAIm2UYqb/Zij/YyM7BjGP8bIyUij+Sd9R+1h1xcZhVwgicvTFZL+t9OXrWC0Ldeoq/jHOboLnQHHfkFLtZeOxKwQRIay0zXj/9kr5OmaFUKfY58NAGSoU/8TvqL2CGBIgFhulWEq2k0L+jhnq01X8Y9xRpuzk5OSPhyEBYlFh5xEl/5315eu4LQt1KhX3+JbKWIpSdUfoimoAsbuwkr9NasNsSvk6ft52I2yTruIf344ylmJjoFL0XEyQv94J4TvY1W8+hXwdv7btieJNqbjHt1QD9BT/QugJE11RDSC2D3r9u9OXr+O4LNSlq/jHt6MGSFEFaMszAmYVRDWA2DwY69+9Ur6OJeX/egSl6f0HNURP8S+GnrCRzei2E2mFaH1cK5aL7UUhf8cU9VhS/GPbU4NQBaiXTcYslf4GRdQfrOtfDG+rba4S6hAU/9iWauAOnD3Ff+OWha0EMSzQtqDcvzilfB3bjlCHvuIf254aKEUVwKIQthNEItD0GIgNfRbJ3ktvx5jELr2g+Me1VIOfv9FT/DdwIMyiUPztmom0MRAJcAyU/2Hs+op9bHtqMKoA/hQiEcg9BuKcj8kmUHo63h0hta7iH9dSLXj6Zk9p3khKZPMpRCKQWwxEwx9bkL/jHoTUSsU/rj21QKoqQE/YDRvv7CvtDY2YLwai4U/F25M3B0JqS4p/XEu1KLHrKf4baklGEHYraJwI2Im5QtQedj73xDmdGuX/dgviuC5cqirAQFiErvzdCNsSg9W4RAxp1SHI3/kQhJT6in9MS7VQV2kumEJYlMnwgJ2wK0S0sOTYZp4XQp268nVeDISUukpzXDtqqRS9ylL0nmLoavw0uRViYTHQ+CE9nK8+2PHwdH50hJRKxT+mpVqsUJoLpyfEEjROBgZKezNsQhwRJX6vgvydL0FIZUlpjmlHLTcQF09TWCNmPdi+GCbYKqzRX9Y4aaLR96srX+fNtUIqQWmO6UA1e5TqVyjNGzFcjVcKKRVrcYHaPZ49XI0vrn0cCjmwORjnyY+PiB0AUymVpsN4zmpUQrKtNnkqWn2st1toPBxjCV+KVSB1xKSs31t7vfTygXzYcFyK+8SyHPBQATB2kywV/2Z5dDXOF1mXFwen4ry1jzk1mHY+HVqN69Y+TgJAfoLGQy2x70GVxtXoSjXbLx/sRmolriXFZQfWMi+GAnzYrMG0YzRJCM5Z+zj5Wh2O6nhDf1jjRPXw2ueVADRFT2k6IFfIyb3DSwVgItXYyzs1HnZAXuziDFMfw9rXD6x9DBt+dquLudrk34enPj+64SOAZusqTVm+0rhjg00USjdOGwQAaLugdKuWOsK2BkpzIAYCALRdqjZnWdhRULoZ4qwKAID2SjXr3yIIM+kpzQFhKAAA2ikoXWezJ8ylVJoDww5bANA+qdqYUphboTQHx+IyAQDaYknp2pe6ljBnL9UOgRaFAABNVyhdu7Is7Jqt4041RlOKbVsBoMmC0pb+g7AnFyldtnalAABN1Ve69qQjLMRA6Q4aSwMBoHmWlK4dWRYWJijt0+OYtAEAzRGUrv0oRel/4axnnvIAMh8AAPIXlG7c36IjRDFQuoM4EAAgdza3K1W7sSxEE5R2KGBJAIBc2T08VXtRitJ/dClXBVgUAgDkJnVb0RGSSFnS4XkBAJCXoLTj/stCMjZBL+XBvVZMCgSAHKRuH+x3BSGpQukOMBkeAOShr7RtQyHUIuWzAiyWBADwyu7RKduEnlArK8+nPOAdAQC8ST3prxRqF5R2aaD9LnYKBAA/gtK3A0FwIeUugZPMLwgAULegtJP+LHhmjDOp5wOwMgAA6pV6xr/FsuBOHScCjw8GgPqk3BPGohQdP7eC0o4DWVwmAEBqS0p7r2fcPwOp5wNYLAkAkIrdc1Pf5xn3z0Tq+QCcHACQxiVKf3+/XMiGjdGk3h/AoiMAQCx2j019Xy+F7ASlnw/AHgEAEIfdW1Pf00sx7p+tQmlPFpIAAFi8oPSNv0UhZK2OSYGlyBoBYBGC0i/xtugJjdAXSQAA5CaonsafSX8NUtekwFIkAQCwG0H1NP6l0DhB9Z1MQQCAWQVxv8aC1TGLlJMKAGYXVE/jz05/LdBV+hOLJAAAdhZUT+NvcZHQCj2RBACAJ0H1Nf49oVXq2C6YJAAAThRUX+PPjP+WGogkAADqFFRf488j3VusruWBJAEAUG/jb7/3dKHVguo9AYMAoH1sVRb3XtQuqL4TkWcHAGibupZk0/hjU3WekPZ7OwKA5rN7XZ33Wjpc2FShek7KSbxDANBcl6jeeyyNP7bVVb0n6JIAoHns3lbnvbUrYAZ1PEKYJABAU12meu+pVFcxl57qPWFtfSpLVADkzO5hdi+r817aE7ALPdV74pZitiqAPAXVt88KjT8WoieSAACYR51r/Gn8sVA91Xsi29IVnlQFIAcd1bfMj8YfUfRU7wltsSQA8MvuUXXfJ3sCIuip/pN7WUwOBOCL3ZPs3lT3/bEnIKKe6j/JSzEvAIAPQfVP9qPxRzI9+UgCmBcAoE6F6h/vp/FHcj3Vf9JbLAkA0rN7j4d7YE9ADXrycQHYRhtBABCfjfcP5OPe1xNQo7q3DZ5EKZIAAHF5WN8/Cbb3hQtd+bggLJYEAItX95P8pqMrwBHLjD1MhrFYFtUAAIvhYT//Sdg9thDgkKfymP0dhQBg9wr5uqcdFOBYkJ8LxmJJADC/uh/hu7HxDwIyEOQrCeDiATCrIB8b+0zC/pYgICOexs0sbOyMWbMAtmMT/bzMZbIYiK3PkbHL5edimlxQQQBwXJCftf2TuFxAA/Tk68IqNX5kJwB46/Vb9AQ0iO3b7+0iWxbVAKCtgvz1+u0e2RXQQEG+JgdOLjjmBgDt4rHXX4plfmi4IH9JwOTiCwLQZEH+ev0WzPRHq3ibHDiJJQFoGptJb9e2x3tOX8z0Rwv15POCLMUkQaApCvmsOlow/IhWK+T34lwWZTkgV0E+y/0W7OkPrAnymwRYLAlALiblfm+T/CbBeD+wCa/zAixKMSwAeFfId2fC7nGM9wNbsDExr5m7xUBk74A3hfyW+y1YbgzMKMh3Fm+xLBIBoG7Wm+7L972iFPcKYC45XNgWS+LiBlLzPs4/CUr+wB54HxKYZPgdAYgtl4afkj+wIEH+hwRIBIC4usrjPsAsfyCCnvxf/CQCwGJ1lUfDb8EjfIGICuVzM7C/syMAu9FVXtd6IQDRBeUxQZBEAJhfV/k0/BZXiol+QHJd5XWjsL+1IwAb5TK5bzrsb71IAGoTlFc1YJIILImJQkCODb/FQFy/gBtd5VUNmMSyuJGgfQ5qPGEut4af5X2AU0H5VQMmYeOIhYBmK+R7y97tYiCSdcC9rvKsBqzo+DyBIKAZrMx/icbr43O4BjcGY/1AZoLyrQZMbjrLGpdKgRwVyrPMPx1s5QtkzBrQUnnddDaG9Zw64kYE/ya9/YHyusY2RimG5IDG6CmvG9BmMakKFAJ8KZR/b39yjfUEoHGC8h4WmI5S455WEFCPyRI+Oxe9Xy+zxEBcT0DjddWcm9bkxtURNy/E15QS/3SUoqoGtE5PzUoESAYQQxMbfQvK/UDLBTVnWIBkAIvS1EZ/EszuB3BMUHNvdpNkgDkD2E5Qsxv9yXVQCAA20VXzhgU2RilWE2DcAy407g3bOeH9vN1LXCvOdwAz6qr5N8VJDDTu+bHpUPMFHe/l575kb5aw19gRAOxCV+1JBFZ0vDrQEcMFTRA0PoftmLahwZ9u+HtinB/AHgU1c8XArAmBPaioIyoEObBjZD38ZbXzfKXhx8weJWB2QePeVEft7R0fXY1Dq/HFtY/Dta8hvckYvsV5Gjf+bW347Bz8iMbzGTgfMRMSAOxGEInAtErjZOC6tY+H1r6GxQkaN/AHNG7wD4pzz9DwY9dIALAXQSQCW5lUCiwpKHU8OeAmvb2wFtajP0f07LdCw489IwHAIgSNe2VLIhHYySQxsI/TSUGl9lQNgsYN+qQXf2Dq3zT026Phx8KQAGDRuiIR2IvphOCwxpO6Dk997aj83vhPX4uwFqdp3Is/beprQdiNSuNG/wrR8GNBSAAQS1fjoYFCiKHS+mSgWvt4eMPPaJvPNzNpxKeFqX8f2PBzYZOfweIMV+PStY8AkBUr7faV11Iqgqg7bOlpISAiKgBIJWi8PvkC0VsENsP4PpIiAUAdumJ4AJgYalwlu1o0/EiIBAB1ChpXBS4Us7/RLtbQ24S+q8T4PmpCAgAPrPG/SFQF0HxDjRt9ZvOjdiQA8CaIuQJolsnYvjX8hwQ4QQIAzy7S8coAkBNr9IcaN/xDAQ6RACAHDBEgF0NR4kcmSACQm6BxEkAyAC+GotFHhkgAkLMgkgHUYygafWSOBABNETROAi5c+8iyQizS5CFOk6V7NPrIHgkAmqrQeMMhVhNgtyqNN+eZzN6n0UejkACgDex5BJYI2ETCQsDmJr18a/C/KJbsoeFIANBGhcbJgCUFB4U2s0beGnt6+WgdEgC0nc0VKNaChKD5Jg3+cC1o8NFaJADAepYQWBJQ6HhCwITCPE1K+teJHj5wAhIAYGcHdTwpOE9UCbw6NBWM4QM7IAEAdqfQOBk4R8eTAioFaVgvvtL6xr4SvXtgLiQAwOJYEhDWPp439W/szsaG/vDax0oA9owEAIhvUh2YVAwOaJwcBFE1OKrjY/XWwJeioQeSIAEA6jWZdGgfLTE4Q+NE4fS1CMo3SZg07tVa3K3jDfzka5TtgZqQAAB5CDqeFEwnB+bA1M9MTH5Gm3xvJ5OGe1q1yfcOb/hepfWNPgDH/j+CmS9xTGJMagAAAABJRU5ErkJggg==;" vertex="1" parent="1">
          <mxGeometry x="662" y="400" width="36" height="36" as="geometry" />
        </mxCell>
      </root>
    </mxGraphModel>
  </diagram>
</mxfile>
